<svg width="16" height="16" viewBox="0 0 16 16" fill="none" xmlns="http://www.w3.org/2000/svg">
<path d="M7.9987 1.33325C4.33203 1.33325 1.33203 4.33325 1.33203 7.99992C1.33203 11.6666 4.33203 14.6666 7.9987 14.6666C11.6654 14.6666 14.6654 11.6666 14.6654 7.99992C14.6654 4.33325 11.6654 1.33325 7.9987 1.33325ZM7.9987 13.3333C5.0587 13.3333 2.66536 10.9399 2.66536 7.99992C2.66536 5.05992 5.0587 2.66659 7.9987 2.66659C10.9387 2.66659 13.332 5.05992 13.332 7.99992C13.332 10.9399 10.9387 13.3333 7.9987 13.3333ZM11.0587 5.05325L6.66536 9.44658L4.9387 7.72658L3.9987 8.66658L6.66536 11.3333L11.9987 5.99992L11.0587 5.05325Z" fill="#F09A24"/>
</svg>
