<svg width="22" height="22" viewBox="0 0 22 22" fill="none" xmlns="http://www.w3.org/2000/svg">
<path d="M19.9375 3.4375H2.0625C1.68223 3.4375 1.375 3.74473 1.375 4.125V17.875C1.375 18.2553 1.68223 18.5625 2.0625 18.5625H19.9375C20.3178 18.5625 20.625 18.2553 20.625 17.875V4.125C20.625 3.74473 20.3178 3.4375 19.9375 3.4375ZM19.0781 17.0156H2.92188V4.98438H19.0781V17.0156ZM13.1119 10.2266H15.7631C15.791 10.2266 15.8125 10.1492 15.8125 10.0547V9.02344C15.8125 8.92891 15.791 8.85156 15.7631 8.85156H13.1119C13.084 8.85156 13.0625 8.92891 13.0625 9.02344V10.0547C13.0625 10.1492 13.084 10.2266 13.1119 10.2266ZM13.215 13.3203H17.2047C17.2885 13.3203 17.3572 13.243 17.3572 13.1484V12.1172C17.3572 12.0227 17.2885 11.9453 17.2047 11.9453H13.215C13.1312 11.9453 13.0625 12.0227 13.0625 12.1172V13.1484C13.0625 13.243 13.1312 13.3203 13.215 13.3203ZM4.8125 14.459H5.75566C5.8459 14.459 5.91894 14.3881 5.92539 14.2979C6.00703 13.2129 6.91367 12.3535 8.01367 12.3535C9.11367 12.3535 10.0203 13.2129 10.102 14.2979C10.1084 14.3881 10.1814 14.459 10.2717 14.459H11.2148C11.2382 14.459 11.2612 14.4543 11.2827 14.4451C11.3041 14.436 11.3234 14.4225 11.3395 14.4056C11.3556 14.3888 11.3681 14.3688 11.3762 14.3469C11.3843 14.3251 11.3879 14.3018 11.3867 14.2785C11.3266 13.1334 10.6992 12.1365 9.78398 11.5693C10.1876 11.1257 10.4106 10.547 10.4092 9.94727C10.4092 8.61738 9.33711 7.54102 8.01582 7.54102C6.69453 7.54102 5.62246 8.61738 5.62246 9.94727C5.62246 10.5725 5.85879 11.1396 6.24766 11.5693C5.78172 11.8581 5.39259 12.2553 5.1135 12.727C4.8344 13.1988 4.67363 13.7311 4.64492 14.2785C4.63633 14.3773 4.71367 14.459 4.8125 14.459ZM8.01367 8.83008C8.62598 8.83008 9.12441 9.33066 9.12441 9.94727C9.12441 10.5639 8.62598 11.0645 8.01367 11.0645C7.40137 11.0645 6.90293 10.5639 6.90293 9.94727C6.90293 9.33066 7.40137 8.83008 8.01367 8.83008Z" fill="#666666"/>
</svg>
