<svg width="19" height="14" viewBox="0 0 19 14" fill="none" xmlns="http://www.w3.org/2000/svg">
<path d="M7.71635 1.90638C7.82405 1.80559 7.91044 1.68404 7.97035 1.549C8.03027 1.41395 8.06248 1.26817 8.06508 1.12035C8.06768 0.972526 8.0406 0.825693 7.98547 0.688608C7.93033 0.551523 7.84827 0.426996 7.74418 0.322453C7.64008 0.217911 7.51609 0.135496 7.37959 0.0801257C7.24309 0.0247549 7.09689 -0.00243712 6.9497 0.000171034C6.80251 0.00277919 6.65736 0.035134 6.52289 0.0953063C6.38842 0.155478 6.2674 0.242235 6.16704 0.3504L0.32059 6.22201C0.115306 6.42844 2.93227e-07 6.70825 3.0598e-07 7C3.18732e-07 7.29175 0.115306 7.57157 0.32059 7.77799L6.16704 13.6496C6.2674 13.7578 6.38842 13.8445 6.52289 13.9047C6.65736 13.9649 6.80251 13.9972 6.9497 13.9998C7.09689 14.0024 7.2431 13.9752 7.37959 13.9199C7.51609 13.8645 7.64008 13.7821 7.74418 13.6775C7.84827 13.573 7.93033 13.4485 7.98547 13.3114C8.0406 13.1743 8.06768 13.0275 8.06508 12.8797C8.06248 12.7318 8.03027 12.586 7.97035 12.451C7.91044 12.316 7.82405 12.1944 7.71635 12.0936L3.74076 8.10093L17.9038 8.10093C18.1945 8.10093 18.4734 7.98494 18.6789 7.77847C18.8845 7.57201 19 7.29198 19 7C19 6.70802 18.8845 6.42799 18.6789 6.22153C18.4734 6.01506 18.1945 5.89907 17.9038 5.89907L3.74076 5.89907L7.71635 1.90638Z" fill="#F09A24"/>
</svg>
