<svg width="32" height="32" viewBox="0 0 32 32" fill="none" xmlns="http://www.w3.org/2000/svg">
<rect x="32" width="32" height="32" rx="16" transform="rotate(90 32 0)" fill="white" fill-opacity="0.04"/>
<path d="M16.7115 12.1204C16.6284 12.0437 16.5617 11.9511 16.5154 11.8482C16.4692 11.7453 16.4443 11.6342 16.4423 11.5216C16.4403 11.4089 16.4612 11.2971 16.5037 11.1926C16.5463 11.0882 16.6097 10.9933 16.69 10.9136C16.7704 10.834 16.8661 10.7712 16.9714 10.729C17.0768 10.6868 17.1897 10.6661 17.3033 10.6681C17.4169 10.6701 17.529 10.6947 17.6328 10.7406C17.7366 10.7864 17.83 10.8525 17.9074 10.9349L22.4205 15.4086C22.579 15.5658 22.668 15.779 22.668 16.0013C22.668 16.2236 22.579 16.4368 22.4205 16.5941L17.9074 21.0677C17.83 21.1501 17.7366 21.2162 17.6328 21.262C17.529 21.3079 17.4169 21.3325 17.3033 21.3345C17.1897 21.3365 17.0768 21.3158 16.9714 21.2736C16.8661 21.2314 16.7704 21.1686 16.69 21.089C16.6097 21.0093 16.5463 20.9144 16.5037 20.81C16.4612 20.7055 16.4403 20.5937 16.4423 20.481C16.4443 20.3684 16.4692 20.2573 16.5154 20.1544C16.5617 20.0516 16.6283 19.959 16.7115 19.8822L19.7804 16.8401L8.8475 16.8401C8.62307 16.8401 8.40784 16.7517 8.24915 16.5944C8.09045 16.4371 8.0013 16.2238 8.0013 16.0013C8.0013 15.7788 8.09045 15.5655 8.24915 15.4082C8.40784 15.2509 8.62307 15.1625 8.8475 15.1625L19.7804 15.1625L16.7115 12.1204Z" fill="white"/>
</svg>
