<svg width="22" height="22" viewBox="0 0 22 22" fill="none" xmlns="http://www.w3.org/2000/svg">
<g clip-path="url(#clip0_4029_4655)">
<path d="M7.66315 0.724094C5.46501 1.48665 3.56933 2.934 2.25457 4.85357C0.939809 6.77313 0.275259 9.06372 0.358534 11.3889C0.441809 13.714 1.26852 15.9512 2.71723 17.7718C4.16595 19.5924 6.16031 20.9004 8.40737 21.5038C10.2291 21.9739 12.1378 21.9945 13.9692 21.5639C15.6284 21.1913 17.1623 20.3941 18.4208 19.2505C19.7306 18.0239 20.6814 16.4635 21.1708 14.7371C21.7028 12.8596 21.7975 10.8852 21.4475 8.9655H11.2175V13.2091H17.1421C17.0236 13.8859 16.7699 14.5319 16.396 15.1084C16.0222 15.6848 15.5358 16.18 14.9661 16.5641C14.2427 17.0426 13.4271 17.3646 12.5719 17.5094C11.7141 17.6689 10.8343 17.6689 9.97659 17.5094C9.10722 17.3297 8.28482 16.9708 7.56174 16.4558C6.40012 15.6335 5.52791 14.4654 5.06956 13.118C4.60346 11.7454 4.60346 10.2573 5.06956 8.88472C5.39582 7.92259 5.93518 7.04658 6.64737 6.32206C7.46238 5.47772 8.49422 4.87418 9.62967 4.57766C10.7651 4.28114 11.9603 4.3031 13.0841 4.64113C13.962 4.91061 14.7648 5.38146 15.4285 6.01613C16.0965 5.35154 16.7634 4.68524 17.4291 4.01722C17.7728 3.658 18.1475 3.31597 18.4861 2.94816C17.473 2.00538 16.2839 1.27179 14.9867 0.789407C12.6247 -0.0682672 10.0401 -0.0913163 7.66315 0.724094Z" fill="white"/>
<path d="M7.66219 0.722976C10.039 -0.0929884 12.6235 -0.0705459 14.9858 0.78657C16.2831 1.27223 17.4718 2.00935 18.4834 2.95563C18.1397 3.32345 17.777 3.66719 17.4264 4.02469C16.7595 4.69042 16.0932 5.35386 15.4275 6.01501C14.7638 5.38034 13.961 4.90949 13.0831 4.64001C11.9597 4.3008 10.7646 4.27757 9.62882 4.57288C8.49307 4.86818 7.4606 5.47061 6.64469 6.31407C5.9325 7.03858 5.39314 7.9146 5.06688 8.87673L1.50391 6.11813C2.77923 3.5891 4.98738 1.65458 7.66219 0.722976Z" fill="#E33629"/>
<path d="M0.560776 8.85195C0.752282 7.90285 1.07022 6.98372 1.50609 6.11914L5.06906 8.88461C4.60296 10.2572 4.60296 11.7453 5.06906 13.1179C3.88197 14.0346 2.69432 14.9558 1.50609 15.8816C0.414942 13.7097 0.0821606 11.235 0.560776 8.85195Z" fill="#F8BD00"/>
<path d="M11.2195 8.96289H21.4495C21.7994 10.8826 21.7048 12.857 21.1728 14.7345C20.6834 16.4609 19.7326 18.0213 18.4228 19.2479C17.273 18.3507 16.118 17.4604 14.9681 16.5632C15.5382 16.1787 16.0247 15.683 16.3986 15.1059C16.7725 14.5288 17.0261 13.8822 17.144 13.2048H11.2195C11.2178 11.792 11.2195 10.3774 11.2195 8.96289Z" fill="#587DBD"/>
<path d="M1.50391 15.8809C2.69214 14.9643 3.87979 14.043 5.06687 13.1172C5.52614 14.465 6.3996 15.6333 7.5625 16.455C8.28783 16.9676 9.11201 17.3235 9.9825 17.5C10.8403 17.6595 11.7201 17.6595 12.5778 17.5C13.4331 17.3552 14.2486 17.0332 14.972 16.5547C16.1219 17.4519 17.2769 18.3422 18.4267 19.2394C17.1684 20.3836 15.6345 21.1814 13.9752 21.5545C12.1437 21.9851 10.235 21.9644 8.41328 21.4944C6.97246 21.1097 5.62663 20.4315 4.46016 19.5023C3.22551 18.5221 2.21711 17.2868 1.50391 15.8809Z" fill="#319F43"/>
</g>
<defs>
<clipPath id="clip0_4029_4655">
<rect width="22" height="22" fill="white"/>
</clipPath>
</defs>
</svg>
