<svg width="20" height="16" viewBox="0 0 20 16" fill="none" xmlns="http://www.w3.org/2000/svg">
<g clip-path="url(#clip0_4068_1207)">
<path d="M11.0562 1.69181L10.3188 0.198062C10.1969 -0.0613125 9.81562 -0.0706875 9.68125 0.198062L8.94375 1.69181L7.30937 1.92619C7.01875 1.96994 6.89375 2.32931 7.10938 2.54494L8.29688 3.70119L8.01562 5.32931C7.97188 5.61994 8.27187 5.84494 8.54062 5.71056L10.0063 4.93556L11.4625 5.69806C11.7312 5.83244 12.0344 5.60744 11.9875 5.31681L11.7063 3.68869L12.8938 2.54494C13.1062 2.33244 12.9844 1.97306 12.6938 1.92619L11.0594 1.69181H11.0562ZM8 8.00119C7.44688 8.00119 7 8.44806 7 9.00119V15.0012C7 15.5543 7.44688 16.0012 8 16.0012H12C12.5531 16.0012 13 15.5543 13 15.0012V9.00119C13 8.44806 12.5531 8.00119 12 8.00119H8ZM1 10.0012C0.446875 10.0012 0 10.4481 0 11.0012V15.0012C0 15.5543 0.446875 16.0012 1 16.0012H5C5.55312 16.0012 6 15.5543 6 15.0012V11.0012C6 10.4481 5.55312 10.0012 5 10.0012H1ZM14 13.0012V15.0012C14 15.5543 14.4469 16.0012 15 16.0012H19C19.5531 16.0012 20 15.5543 20 15.0012V13.0012C20 12.4481 19.5531 12.0012 19 12.0012H15C14.4469 12.0012 14 12.4481 14 13.0012Z" fill="#00B66C"/>
</g>
<defs>
<clipPath id="clip0_4068_1207">
<rect width="20" height="16" fill="white"/>
</clipPath>
</defs>
</svg>
