<svg width="20" height="20" viewBox="0 0 20 20" fill="none" xmlns="http://www.w3.org/2000/svg">
<path d="M10 2.5C9.75377 2.5 9.50995 2.5485 9.28247 2.64273C9.05498 2.73695 8.84828 2.87506 8.67417 3.04917C8.50006 3.22328 8.36195 3.42998 8.26773 3.65747C8.1735 3.88495 8.125 4.12877 8.125 4.375C8.125 4.62123 8.1735 4.86505 8.26773 5.09253C8.36195 5.32002 8.50006 5.52672 8.67417 5.70083C8.84828 5.87494 9.05498 6.01305 9.28247 6.10727C9.50995 6.2015 9.75377 6.25 10 6.25C10.4973 6.25 10.9742 6.05246 11.3258 5.70083C11.6775 5.34919 11.875 4.87228 11.875 4.375C11.875 3.87772 11.6775 3.40081 11.3258 3.04917C10.9742 2.69754 10.4973 2.5 10 2.5ZM6.875 4.375C6.875 3.5462 7.20424 2.75134 7.79029 2.16529C8.37634 1.57924 9.1712 1.25 10 1.25C10.8288 1.25 11.6237 1.57924 12.2097 2.16529C12.7958 2.75134 13.125 3.5462 13.125 4.375C13.125 5.2038 12.7958 5.99866 12.2097 6.58471C11.6237 7.17076 10.8288 7.5 10 7.5C9.1712 7.5 8.37634 7.17076 7.79029 6.58471C7.20424 5.99866 6.875 5.2038 6.875 4.375ZM5 10.625C5.00083 10.3967 5.02417 10.1758 5.07 9.9625L2.64 10.6125C2.40212 10.6763 2.17914 10.7864 1.98379 10.9364C1.78845 11.0864 1.62458 11.2734 1.50153 11.4868C1.37849 11.7001 1.29868 11.9356 1.26668 12.1798C1.23467 12.424 1.25109 12.6721 1.315 12.91L1.8 14.7213C1.9304 15.2073 2.15727 15.662 2.4671 16.0585C2.77694 16.455 3.1634 16.7851 3.60347 17.0291C4.04354 17.2731 4.52822 17.426 5.02863 17.4788C5.52905 17.5316 6.03496 17.4831 6.51625 17.3363C6.18194 17.012 5.89458 16.6426 5.6625 16.2388C5.07365 16.2956 4.48372 16.1418 3.99759 15.8046C3.51147 15.4675 3.16065 14.9689 3.0075 14.3975L2.52125 12.585C2.47851 12.4249 2.50111 12.2543 2.58409 12.1109C2.66708 11.9674 2.80364 11.8628 2.96375 11.82L5 11.275V10.625ZM13.6075 17.3725L13.4825 17.3375C13.8162 17.0125 14.105 16.6438 14.3375 16.2388C14.9264 16.2956 15.5163 16.1418 16.0024 15.8046C16.4885 15.4675 16.8394 14.9689 16.9925 14.3975L17.4775 12.585C17.5203 12.425 17.4979 12.2547 17.4151 12.1112C17.3324 11.9678 17.1961 11.8631 17.0362 11.82L15 11.275V10.625C14.9992 10.3967 14.9758 10.1758 14.93 9.9625L17.3587 10.6125C17.5967 10.6762 17.8199 10.7861 18.0153 10.9361C18.2108 11.086 18.3748 11.273 18.498 11.4864C18.6212 11.6998 18.7011 11.9353 18.7332 12.1796C18.7653 12.4239 18.7489 12.6721 18.685 12.91L18.2 14.7213C17.9422 15.6816 17.3136 16.5002 16.4524 16.9971C15.5912 17.4941 14.5679 17.6299 13.6075 17.3725ZM2.5 6.25C2.5 5.91848 2.6317 5.60054 2.86612 5.36612C3.10054 5.1317 3.41848 5 3.75 5C4.08152 5 4.39946 5.1317 4.63388 5.36612C4.8683 5.60054 5 5.91848 5 6.25C5 6.58152 4.8683 6.89946 4.63388 7.13388C4.39946 7.3683 4.08152 7.5 3.75 7.5C3.41848 7.5 3.10054 7.3683 2.86612 7.13388C2.6317 6.89946 2.5 6.58152 2.5 6.25ZM3.75 3.75C3.08696 3.75 2.45107 4.01339 1.98223 4.48223C1.51339 4.95107 1.25 5.58696 1.25 6.25C1.25 6.91304 1.51339 7.54893 1.98223 8.01777C2.45107 8.48661 3.08696 8.75 3.75 8.75C4.41304 8.75 5.04893 8.48661 5.51777 8.01777C5.98661 7.54893 6.25 6.91304 6.25 6.25C6.25 5.58696 5.98661 4.95107 5.51777 4.48223C5.04893 4.01339 4.41304 3.75 3.75 3.75ZM16.25 5C15.9185 5 15.6005 5.1317 15.3661 5.36612C15.1317 5.60054 15 5.91848 15 6.25C15 6.58152 15.1317 6.89946 15.3661 7.13388C15.6005 7.3683 15.9185 7.5 16.25 7.5C16.5815 7.5 16.8995 7.3683 17.1339 7.13388C17.3683 6.89946 17.5 6.58152 17.5 6.25C17.5 5.91848 17.3683 5.60054 17.1339 5.36612C16.8995 5.1317 16.5815 5 16.25 5ZM13.75 6.25C13.75 5.58696 14.0134 4.95107 14.4822 4.48223C14.9511 4.01339 15.587 3.75 16.25 3.75C16.913 3.75 17.5489 4.01339 18.0178 4.48223C18.4866 4.95107 18.75 5.58696 18.75 6.25C18.75 6.91304 18.4866 7.54893 18.0178 8.01777C17.5489 8.48661 16.913 8.75 16.25 8.75C15.587 8.75 14.9511 8.48661 14.4822 8.01777C14.0134 7.54893 13.75 6.91304 13.75 6.25ZM8.125 8.75C7.62772 8.75 7.15081 8.94754 6.79917 9.29917C6.44754 9.65081 6.25 10.1277 6.25 10.625V13.75C6.25 14.7446 6.64509 15.6984 7.34835 16.4017C8.05161 17.1049 9.00544 17.5 10 17.5C10.9946 17.5 11.9484 17.1049 12.6517 16.4017C13.3549 15.6984 13.75 14.7446 13.75 13.75V10.625C13.75 10.1277 13.5525 9.65081 13.2008 9.29917C12.8492 8.94754 12.3723 8.75 11.875 8.75H8.125ZM7.5 10.625C7.5 10.4592 7.56585 10.3003 7.68306 10.1831C7.80027 10.0658 7.95924 10 8.125 10H11.875C12.0408 10 12.1997 10.0658 12.3169 10.1831C12.4342 10.3003 12.5 10.4592 12.5 10.625V13.75C12.5 14.413 12.2366 15.0489 11.7678 15.5178C11.2989 15.9866 10.663 16.25 10 16.25C9.33696 16.25 8.70107 15.9866 8.23223 15.5178C7.76339 15.0489 7.5 14.413 7.5 13.75V10.625Z" fill="#00B66C"/>
</svg>
