<svg width="87" height="87" viewBox="0 0 87 87" fill="none" xmlns="http://www.w3.org/2000/svg">
<rect x="0.5" y="0.5" width="86" height="86" rx="43" stroke="#C1272D"/>
<path d="M48.5625 20.5L47.6562 52.3438H40.6875L39.7812 20.5H48.5625ZM39.5312 62.1562C39.5312 60.9271 39.9479 59.8958 40.7812 59.0625C41.6354 58.2083 42.7812 57.7812 44.2188 57.7812C45.6562 57.7812 46.7917 58.2083 47.625 59.0625C48.4792 59.8958 48.9062 60.9271 48.9062 62.1562C48.9062 63.3646 48.4792 64.3854 47.625 65.2188C46.7917 66.0521 45.6562 66.4688 44.2188 66.4688C42.7812 66.4688 41.6354 66.0521 40.7812 65.2188C39.9479 64.3854 39.5312 63.3646 39.5312 62.1562Z" fill="#C1272D"/>
</svg>
