<svg width="21" height="21" viewBox="0 0 21 21" fill="none" xmlns="http://www.w3.org/2000/svg">
<mask id="mask0_4292_58" style="mask-type:luminance" maskUnits="userSpaceOnUse" x="0" y="0" width="21" height="21">
<path d="M0 0H21V21H0V0Z" fill="white"/>
</mask>
<g mask="url(#mask0_4292_58)">
<path d="M10.5003 0C4.70059 0 0 4.70211 0 10.5C0 16.3007 4.70059 21 10.5003 21C16.2989 21 21 16.3007 21 10.5C21 4.70211 16.2989 0 10.5003 0Z" fill="#FFD740"/>
</g>
<path d="M10.5001 1.57605C5.57118 1.57605 1.5752 5.57178 1.5752 10.5C1.5752 15.429 5.57118 19.4249 10.5001 19.4249C15.4283 19.4249 19.4243 15.429 19.4243 10.5C19.4243 5.57178 15.4283 1.57605 10.5001 1.57605Z" fill="#F57F17"/>
<path d="M10.5001 2.23083C5.57118 2.23083 1.5752 5.57184 1.5752 10.5C1.5752 15.429 5.57118 19.425 10.5001 19.425C15.4283 19.425 19.4243 15.429 19.4243 10.5C19.4243 5.57184 15.4283 2.23083 10.5001 2.23083Z" fill="#FFAB00"/>
<path d="M13.3953 11.3687C12.9793 10.8724 12.1919 10.4673 11.0409 10.1562C10.9718 10.1362 10.1477 9.87792 9.99526 9.8083C9.68283 9.67538 9.45041 9.49916 9.29648 9.27965C9.21546 9.16369 9.15647 9.0447 9.11697 8.9176C9.11672 8.9133 9.11469 8.90595 9.11343 8.89962C9.10684 8.88291 9.10178 8.86443 9.09874 8.84772C9.07013 8.74569 9.05317 8.63859 9.05317 8.52795C9.05317 7.80208 9.69499 7.2157 10.4837 7.2157C11.2594 7.2157 11.8893 7.78207 11.9119 8.48997L13.7272 8.253V7.59675L13.1869 6.89872L13.1866 6.90024C13.0902 6.7658 12.9836 6.64149 12.8641 6.52755C12.4109 6.09866 11.8037 5.83611 11.0409 5.74471V4.75629H9.99526V5.74471C9.16989 5.8275 8.5068 6.13588 8.0093 6.67212C7.5128 7.20659 7.26393 7.86866 7.26393 8.65606C7.26393 9.43485 7.48546 10.0952 7.92347 10.6418C8.364 11.1864 9.05367 11.5927 9.99526 11.8634C10.1459 11.9117 10.9452 12.1434 11.0409 12.1733C11.4721 12.2973 11.784 12.4758 11.9734 12.708C12.1628 12.9422 12.2587 13.2202 12.2587 13.5427C12.2587 13.9015 12.1455 14.2157 11.9195 14.4823C11.6929 14.7476 11.3999 14.9152 11.0409 14.9828C10.6409 15.0507 10.1968 14.9963 9.99526 14.8813C9.73676 14.757 9.5008 14.5545 9.28888 14.2772C9.07671 13.9972 8.93493 13.6668 8.85645 13.281L6.97656 12.8288V13.4843C7.12113 14.4307 7.45255 15.1626 7.97056 15.6819C8.48908 16.1996 9.16356 16.5098 9.99526 16.6106V17.5557H11.0409V16.5751C11.9767 16.4409 12.7076 16.0771 13.234 15.4801C13.7588 14.8846 14.0221 14.1514 14.0221 13.281C14.0221 12.5042 13.814 11.8657 13.3953 11.3687Z" fill="#F57F17"/>
<path d="M11.0409 9.50035C10.9718 9.48035 10.1477 9.22159 9.99526 9.15323C9.68283 9.0193 9.45041 8.84334 9.29648 8.62383C9.21546 8.50838 9.15647 8.38862 9.11697 8.26254C9.11672 8.25747 9.11469 8.25013 9.11343 8.24456C9.10684 8.22709 9.10178 8.20988 9.09874 8.19266C9.07013 8.09012 9.05317 7.98302 9.05317 7.87238C9.05317 7.14625 9.69499 6.56039 10.4837 6.56039C11.2594 6.56039 11.8893 7.12676 11.9119 7.83415L13.7272 7.59692C13.6024 6.87737 13.3135 6.30113 12.8641 5.87249C12.4109 5.44335 11.8037 5.18029 11.0409 5.0894V4.10046H9.99526V5.0894C9.16989 5.17219 8.5068 5.48056 8.0093 6.0168C7.5128 6.55102 7.26393 7.21309 7.26393 8.00024C7.26393 8.77928 7.48546 9.43984 7.92347 9.98545C8.364 10.5311 9.05367 10.9382 9.99526 11.2081C10.1459 11.2559 10.9452 11.4881 11.0409 11.5182C11.4721 11.6415 11.784 11.8198 11.9734 12.0524C12.1628 12.2869 12.2587 12.5644 12.2587 12.8867C12.2587 13.2457 12.1455 13.5596 11.9195 13.827C11.6929 14.0923 11.3999 14.2594 11.0409 14.3268C10.6409 14.3954 10.1968 14.3407 9.99526 14.2258C9.73676 14.1009 9.5008 13.8991 9.28888 13.6214C9.07671 13.3414 8.93493 13.0115 8.85645 12.6251L6.97656 12.8289C7.12113 13.7746 7.45255 14.507 7.97056 15.0261C8.48908 15.5438 9.16356 15.8545 9.99526 15.9552V16.8999H11.0409V15.9193C11.9767 15.7851 12.7076 15.421 13.234 14.8245C13.7588 14.2293 14.0221 13.4958 14.0221 12.6251C14.0221 11.8484 13.814 11.2098 13.3953 10.7128C12.9793 10.2166 12.1919 9.81176 11.0409 9.50035Z" fill="#FFD740"/>
<path d="M7.26981 3.51711C5.45424 3.85106 5.18358 4.12222 4.84964 5.93754C4.51493 4.12222 4.24428 3.85106 2.42896 3.51711C4.24428 3.18265 4.51493 2.91175 4.84964 1.09668C5.18358 2.91175 5.45424 3.18265 7.26981 3.51711Z" fill="white"/>
</svg>
