<svg width="49" height="54" viewBox="0 0 49 54" fill="none" xmlns="http://www.w3.org/2000/svg">
<mask id="mask0_4292_34" style="mask-type:luminance" maskUnits="userSpaceOnUse" x="0" y="0" width="23" height="22">
<path d="M0 0H22.8948V21.5208H0V0Z" fill="white"/>
</mask>
<g mask="url(#mask0_4292_34)">
<path d="M5.39758 2.54286C5.34831 2.45801 5.31683 2.36768 5.30315 2.27188C5.29083 2.17471 5.2963 2.07891 5.32094 1.98448C5.34557 1.89005 5.388 1.8052 5.44822 1.72719C5.50707 1.64918 5.5796 1.58623 5.66445 1.53833C5.74793 1.48906 5.83963 1.45895 5.9368 1.44663C6.0326 1.43432 6.1284 1.44116 6.22283 1.46716C6.31726 1.49316 6.40211 1.53559 6.48012 1.59581C6.55676 1.65602 6.61971 1.72856 6.66624 1.81341L8.58772 5.13356C8.63699 5.21841 8.6671 5.30874 8.67941 5.40454C8.69173 5.50034 8.68489 5.59614 8.66025 5.6892C8.63425 5.78363 8.59182 5.86849 8.53298 5.94513C8.47276 6.02313 8.40159 6.08472 8.31674 6.13399C8.23326 6.18189 8.14293 6.212 8.04576 6.22431C7.94996 6.23663 7.85416 6.23116 7.7611 6.20515C7.66667 6.17915 7.58182 6.13673 7.50381 6.07788C7.42717 6.01903 7.36422 5.94649 7.31632 5.86301L5.39758 2.54286ZM1.80234 6.67184C1.71886 6.62394 1.64633 6.56098 1.58748 6.48434C1.52863 6.4077 1.4862 6.32285 1.4602 6.22842C1.43557 6.13536 1.42872 6.03956 1.44104 5.94376C1.45336 5.84796 1.48483 5.75763 1.53273 5.67415C1.58063 5.5893 1.64359 5.51813 1.72023 5.45928C1.79824 5.40043 1.88309 5.35801 1.97615 5.33201C2.07058 5.30737 2.16501 5.30053 2.26218 5.31285C2.35798 5.32516 2.44831 5.35664 2.53179 5.40454L5.85605 7.32328C5.9409 7.37118 6.01344 7.43413 6.07365 7.51077C6.1325 7.58741 6.1763 7.67363 6.20093 7.76669C6.22693 7.86113 6.23378 7.95556 6.22146 8.05273C6.20914 8.14853 6.17903 8.23885 6.12977 8.3237C6.08186 8.40855 6.01891 8.47972 5.9409 8.53857C5.86426 8.59879 5.77804 8.64121 5.68361 8.66585C5.58918 8.69048 5.49475 8.69732 5.39758 8.68364C5.30178 8.67132 5.21145 8.63984 5.1266 8.59057L1.80234 6.67184ZM0.75128 12.0476C0.654112 12.0476 0.55968 12.0298 0.469354 11.9915C0.380397 11.9545 0.30102 11.9011 0.231223 11.8327C0.162795 11.7629 0.10942 11.6835 0.0724688 11.5946C0.0355173 11.5043 0.0163574 11.4098 0.0163574 11.3127C0.0163574 11.2155 0.0355173 11.1224 0.0724688 11.0321C0.10942 10.9418 0.162795 10.8624 0.231223 10.794C0.30102 10.7242 0.380397 10.6722 0.469354 10.6339C0.55968 10.5969 0.654112 10.5777 0.75128 10.5777H4.59012C4.68866 10.5777 4.78172 10.5969 4.87205 10.6339C4.96237 10.6722 5.04175 10.7242 5.11018 10.794C5.17998 10.8624 5.23198 10.9418 5.2703 11.0321C5.30725 11.1224 5.32641 11.2155 5.32641 11.3127C5.32641 11.4098 5.30725 11.5043 5.2703 11.5946C5.23198 11.6835 5.17998 11.7629 5.11018 11.8327C5.04175 11.9011 4.96237 11.9545 4.87205 11.9915C4.78172 12.0298 4.68866 12.0476 4.59012 12.0476H0.75128ZM2.53453 17.2222C2.45105 17.2701 2.36072 17.3002 2.26355 17.3125C2.16775 17.3248 2.07332 17.3193 1.97889 17.2933C1.88446 17.2687 1.79961 17.2263 1.72297 17.1674C1.64496 17.1072 1.582 17.036 1.5341 16.9525C1.48483 16.8677 1.45473 16.7787 1.44104 16.6816C1.42872 16.5858 1.4342 16.4913 1.4602 16.3969C1.48483 16.3038 1.52589 16.2176 1.58474 16.141C1.64359 16.063 1.71475 16 1.79961 15.9508L5.12387 14.0348C5.20735 13.9869 5.29767 13.9554 5.39484 13.9431C5.49064 13.9294 5.58644 13.9362 5.68087 13.9608C5.77394 13.9855 5.86016 14.0279 5.9368 14.0868C6.0148 14.1456 6.07776 14.2168 6.12703 14.3016C6.17493 14.3851 6.20641 14.4754 6.21872 14.5712C6.23241 14.6684 6.22556 14.7628 6.20093 14.8573C6.1763 14.9517 6.13387 15.0365 6.07502 15.1132C6.01617 15.1912 5.94364 15.2541 5.86016 15.302L2.53453 17.2222ZM6.66624 20.8119C6.61834 20.8954 6.55539 20.9666 6.47875 21.024C6.40074 21.0829 6.31589 21.124 6.22283 21.1486C6.12977 21.1732 6.03533 21.1787 5.93953 21.1664C5.84373 21.1541 5.75478 21.124 5.67129 21.0747C5.58781 21.0268 5.51664 20.9652 5.4578 20.8886C5.39895 20.8133 5.35652 20.7284 5.33052 20.6354C5.30452 20.5423 5.29767 20.4479 5.30999 20.3534C5.32094 20.2576 5.35105 20.1673 5.39758 20.0838L7.31632 16.7609C7.36422 16.6761 7.42717 16.6049 7.50381 16.5461C7.58182 16.4859 7.66667 16.4434 7.7611 16.4188C7.85416 16.3928 7.94996 16.386 8.04576 16.3983C8.14293 16.412 8.23326 16.4421 8.31674 16.49C8.40159 16.5379 8.47276 16.6008 8.53298 16.6775C8.59182 16.7541 8.63425 16.8403 8.66025 16.9334C8.68489 17.0278 8.69173 17.1222 8.67941 17.2194C8.6671 17.3152 8.63699 17.4055 8.58772 17.489L6.66624 20.8119ZM21.8738 10.5818C21.971 10.5818 22.0654 10.5996 22.1544 10.6366C22.2447 10.6735 22.3241 10.7269 22.3925 10.7953C22.4609 10.8638 22.5143 10.9431 22.5513 11.0335C22.5882 11.1224 22.6074 11.2155 22.6074 11.3127C22.6074 11.4098 22.5882 11.5029 22.5513 11.5932C22.5143 11.6822 22.4609 11.7616 22.3925 11.83C22.3241 11.8998 22.2447 11.9518 22.1544 11.9887C22.0654 12.0257 21.971 12.0448 21.8738 12.0448H18.035C17.9378 12.0448 17.8434 12.0257 17.7544 11.9887C17.6641 11.9518 17.5847 11.8998 17.5163 11.83C17.4478 11.7616 17.3945 11.6822 17.3575 11.5932C17.3206 11.5029 17.3014 11.4098 17.3014 11.3127C17.3014 11.2155 17.3206 11.1224 17.3575 11.0335C17.3945 10.9431 17.4478 10.8638 17.5163 10.7953C17.5847 10.7269 17.6641 10.6735 17.7544 10.6366C17.8434 10.5996 17.9378 10.5818 18.035 10.5818H21.8738ZM20.0892 5.40454C20.174 5.35527 20.2644 5.32379 20.3615 5.31011C20.4587 5.29642 20.5531 5.3019 20.6489 5.32653C20.7434 5.35117 20.8296 5.39359 20.9062 5.45244C20.9842 5.51266 21.0472 5.58382 21.0965 5.66867C21.1457 5.75216 21.1772 5.84385 21.1895 5.93965C21.2018 6.03682 21.1964 6.13262 21.1704 6.22705C21.1457 6.32011 21.1019 6.40633 21.0431 6.48297C20.9829 6.56098 20.9103 6.62394 20.8255 6.67184L17.5012 8.59057C17.4164 8.63984 17.326 8.66995 17.2302 8.68364C17.1331 8.69595 17.0386 8.69048 16.9442 8.66585C16.8498 8.64121 16.7649 8.59879 16.6869 8.53994C16.6103 8.48109 16.5473 8.40855 16.4981 8.32507C16.4488 8.24022 16.4187 8.15126 16.405 8.05409C16.3927 7.95829 16.3982 7.86249 16.4242 7.76943C16.4488 7.675 16.4912 7.59015 16.5501 7.51214C16.6089 7.4355 16.6814 7.37255 16.7649 7.32328L20.0892 5.40454ZM15.9575 1.81341C16.0054 1.72856 16.0683 1.65602 16.145 1.59581C16.223 1.53559 16.3078 1.49316 16.4023 1.46716C16.4967 1.44116 16.5925 1.43432 16.6883 1.44663C16.7855 1.45895 16.8772 1.48906 16.9606 1.53833C17.0455 1.58623 17.118 1.64918 17.1769 1.72719C17.2371 1.8052 17.2795 1.89005 17.3041 1.98448C17.3288 2.07891 17.3343 2.17471 17.3219 2.27188C17.3083 2.36768 17.2768 2.45801 17.2275 2.54286L15.3088 5.86301C15.2609 5.94649 15.1979 6.01903 15.1213 6.07788C15.0433 6.13673 14.9584 6.17915 14.864 6.20515C14.7709 6.23116 14.6751 6.23663 14.5793 6.22431C14.4822 6.212 14.3918 6.18189 14.3083 6.13399C14.2235 6.08472 14.151 6.02313 14.0921 5.94513C14.0333 5.86849 13.9908 5.78363 13.9648 5.6892C13.9402 5.59614 13.9334 5.50034 13.9457 5.40454C13.958 5.30874 13.9881 5.21841 14.0374 5.13356L15.9575 1.81341ZM10.5776 0.766452C10.5776 0.669284 10.5968 0.576221 10.6337 0.485895C10.6707 0.395569 10.7241 0.316192 10.7939 0.247764C10.8623 0.179335 10.9417 0.125961 11.032 0.0890094C11.1209 0.0520579 11.2154 0.0328979 11.3125 0.0328979C11.4097 0.0328979 11.5041 0.0520579 11.5931 0.0890094C11.6834 0.125961 11.7628 0.179335 11.8312 0.247764C11.901 0.316192 11.953 0.395569 11.9914 0.485895C12.0283 0.576221 12.0475 0.669284 12.0475 0.766452V4.60119C12.0475 4.69836 12.0283 4.79142 11.9914 4.88175C11.953 4.97207 11.901 5.05145 11.8312 5.11988C11.7628 5.18831 11.6834 5.24168 11.5931 5.27863C11.5041 5.31558 11.4097 5.33474 11.3125 5.33474C11.2154 5.33474 11.1209 5.31558 11.032 5.27863C10.9417 5.24168 10.8623 5.18831 10.7939 5.11988C10.7241 5.05145 10.6707 4.97207 10.6337 4.88175C10.5968 4.79142 10.5776 4.69836 10.5776 4.60119V0.766452Z" fill="#39AAFF"/>
</g>
<path fill-rule="evenodd" clip-rule="evenodd" d="M23.4149 39.2288L8.71369 13.8008C8.59736 13.6023 8.50293 13.3943 8.42765 13.1767C8.35238 12.9591 8.30038 12.736 8.2689 12.5088C8.23879 12.2803 8.23058 12.0517 8.24563 11.8232C8.25932 11.5932 8.29627 11.3674 8.35512 11.1457C8.41397 10.9226 8.49471 10.7092 8.59599 10.5025C8.69726 10.2958 8.81907 10.1015 8.95866 9.91948C9.09825 9.73747 9.25427 9.56913 9.42808 9.41859C9.60052 9.26668 9.78665 9.13256 9.98646 9.0176C10.1849 8.90264 10.3943 8.80821 10.6119 8.73567C10.8295 8.66177 11.0526 8.60976 11.2811 8.57965C11.5097 8.54954 11.7382 8.5427 11.9681 8.55776C12.1981 8.57281 12.4239 8.61113 12.6456 8.67135C12.8687 8.7302 13.0822 8.81231 13.2888 8.91359C13.4941 9.01623 13.6884 9.13666 13.8718 9.27763C14.0539 9.41859 14.2194 9.5746 14.3714 9.74841C14.5219 9.92222 14.6547 10.1083 14.7696 10.3082L22.3597 23.4328C22.2447 23.2343 22.1517 23.0263 22.0778 22.8101C22.0039 22.5925 21.9519 22.3707 21.9218 22.1436C21.8917 21.9164 21.8848 21.6878 21.8999 21.4593C21.9149 21.2307 21.9519 21.0063 22.0121 20.7846C22.0709 20.5629 22.1517 20.3494 22.253 20.1441C22.3542 19.9388 22.476 19.7445 22.6156 19.5624C22.7552 19.3804 22.9112 19.2148 23.0837 19.0629C23.2561 18.9124 23.4422 18.7796 23.6407 18.6647C23.8391 18.5497 24.0472 18.4566 24.2648 18.3827C24.4824 18.3088 24.7041 18.2568 24.9313 18.2267C25.1598 18.1966 25.387 18.1898 25.6169 18.2048C25.8455 18.2185 26.0713 18.2555 26.293 18.3157C26.5147 18.3745 26.7282 18.4553 26.9335 18.5565C27.1401 18.6578 27.3345 18.7782 27.5165 18.9165C27.6985 19.0561 27.8655 19.2121 28.016 19.3845C28.1679 19.557 28.3007 19.7417 28.4156 19.9402L29.9744 22.6362C29.8595 22.4378 29.765 22.2298 29.6911 22.0122C29.6172 21.7946 29.5666 21.5729 29.5365 21.3457C29.5064 21.1185 29.4995 20.89 29.5146 20.6614C29.5297 20.4328 29.5666 20.207 29.6268 19.9853C29.6857 19.7636 29.7664 19.5501 29.8677 19.3448C29.9703 19.1396 30.0908 18.9452 30.2304 18.7646C30.37 18.5825 30.526 18.4156 30.6984 18.265C30.8722 18.1131 31.057 17.9804 31.2568 17.8654C31.4552 17.7505 31.6633 17.6574 31.8809 17.5835C32.0985 17.5096 32.3202 17.4576 32.5487 17.4275C32.7759 17.3974 33.0045 17.3905 33.233 17.4056C33.4629 17.4206 33.6874 17.4576 33.9091 17.5164C34.1308 17.5766 34.3457 17.656 34.5509 17.7587C34.7576 17.8599 34.9506 17.9804 35.134 18.12C35.316 18.2596 35.4829 18.4142 35.6335 18.5866C35.7854 18.7591 35.9181 18.9452 36.0331 19.1437L37.8382 22.2667C37.7247 22.0683 37.6302 21.8603 37.5577 21.644C37.4838 21.4264 37.4318 21.2047 37.403 20.9775C37.3729 20.7504 37.3661 20.5218 37.3811 20.2933C37.3962 20.0647 37.4332 19.8389 37.492 19.6185C37.5508 19.3968 37.6316 19.1833 37.7329 18.9781C37.8341 18.7714 37.9546 18.5784 38.0942 18.3964C38.2324 18.2144 38.3884 18.0474 38.5609 17.8955C38.7333 17.7436 38.9181 17.6109 39.1165 17.4959C40.782 16.5338 42.9854 17.0812 43.8942 18.7741C57.5375 44.1817 40.96 56.752 27.808 52.066C24.9436 51.0451 16.1231 44.9522 12.699 44.1009C7.85285 42.8993 10.4709 35.765 15.9945 37.2444L23.4149 39.2288Z" fill="#FBBD80"/>
<path fill-rule="evenodd" clip-rule="evenodd" d="M38.4788 17.968C40.0102 17.5013 41.7442 18.1076 42.527 19.5624C51.2106 35.7416 47.6468 46.7135 40.5166 51.3434C48.5268 47.2664 53.1197 35.9551 43.8942 18.7741C42.9855 17.0812 40.7807 16.5338 39.1165 17.4959C38.8852 17.6286 38.6731 17.786 38.4788 17.968Z" fill="#E2AA73"/>
<path fill-rule="evenodd" clip-rule="evenodd" d="M36.0332 19.1436C35.9182 18.9452 35.7841 18.7604 35.6322 18.588C35.4803 18.4169 35.3133 18.2609 35.1313 18.1226C34.9493 17.9831 34.7549 17.8626 34.5496 17.7613C34.343 17.6601 34.1295 17.5807 33.9078 17.5218C33.6861 17.4616 33.4603 17.4247 33.2317 17.4096C33.0031 17.3946 32.7746 17.4028 32.5474 17.4315C32.3202 17.4616 32.0972 17.5123 31.8796 17.5862C31.6619 17.6601 31.4539 17.7531 31.2555 17.8667C31.0228 17.9995 30.8093 18.1569 30.615 18.3403C30.8025 18.2841 30.9941 18.2431 31.1884 18.2184C31.3828 18.1938 31.5771 18.1856 31.7742 18.1938C31.9699 18.202 32.1628 18.2253 32.3558 18.2663C32.5474 18.306 32.7335 18.3635 32.9169 18.4347C33.0989 18.5072 33.2741 18.5934 33.4425 18.6947C33.6094 18.796 33.7682 18.9096 33.916 19.0369C34.0652 19.1655 34.202 19.3037 34.3279 19.4543C34.4525 19.6062 34.5647 19.7649 34.6632 19.9346L37.8712 25.4801L37.9163 25.5608C37.9683 25.6512 38.0368 25.7278 38.1202 25.7921C38.2037 25.8564 38.2954 25.9016 38.3967 25.929C38.498 25.9564 38.6006 25.9632 38.7046 25.9495C38.8086 25.9358 38.9058 25.9043 38.9975 25.8523C39.0878 25.799 39.1645 25.7319 39.2288 25.6484C39.2917 25.5649 39.3369 25.4732 39.3643 25.372C39.3916 25.2707 39.3985 25.1681 39.3848 25.064C39.3711 24.96 39.3383 24.8629 39.2863 24.7725L38.0326 22.6061L36.0332 19.1436Z" fill="#E2AA73"/>
<path fill-rule="evenodd" clip-rule="evenodd" d="M28.4157 19.9401C28.3007 19.743 28.1666 19.5583 28.0147 19.3859C27.8641 19.2134 27.6972 19.0588 27.5138 18.9192C27.3318 18.7796 27.1374 18.6605 26.9321 18.5592C26.7255 18.458 26.512 18.3772 26.2903 18.3184C26.0686 18.2595 25.8441 18.2212 25.6142 18.2061C25.3857 18.1911 25.1571 18.1993 24.9299 18.2294C24.7027 18.2581 24.4797 18.3102 24.2621 18.3827C24.0445 18.4566 23.8364 18.5497 23.638 18.6646C23.4067 18.7974 23.1946 18.9548 23.0002 19.1368C23.1877 19.0807 23.3793 19.0396 23.5737 19.015C23.768 18.9903 23.9637 18.9821 24.1594 18.9903C24.3551 18.9985 24.5495 19.0232 24.7411 19.0642C24.9327 19.1039 25.1202 19.16 25.3022 19.2326C25.4842 19.3037 25.6594 19.39 25.8277 19.4912C25.9947 19.5925 26.1534 19.7075 26.3026 19.8347C26.4504 19.962 26.5873 20.1016 26.7132 20.2522C26.8377 20.4027 26.9499 20.5628 27.0485 20.7325L30.6081 26.887L31.8125 28.9727L31.859 29.0534C31.9124 29.1438 31.9794 29.2204 32.0629 29.2847C32.145 29.3477 32.2381 29.3928 32.338 29.4202C32.4393 29.4476 32.5419 29.4544 32.6459 29.4421C32.7499 29.4284 32.8471 29.397 32.9374 29.3449C33.0278 29.2916 33.1058 29.2245 33.1687 29.141C33.2331 29.0575 33.2782 28.9659 33.3056 28.8646C33.333 28.7633 33.3398 28.6607 33.3261 28.5566C33.3124 28.4526 33.2782 28.3555 33.2262 28.2651L33.1824 28.1844L31.9753 26.0987L28.4157 19.9401Z" fill="#E2AA73"/>
<path fill-rule="evenodd" clip-rule="evenodd" d="M27.1238 31.677L14.7697 10.3081C14.704 10.1945 14.6328 10.0837 14.5548 9.97828C14.4768 9.8729 14.3933 9.773 14.3044 9.67583C14.2154 9.58003 14.121 9.4897 14.0211 9.40348C13.9225 9.31863 13.8185 9.23788 13.709 9.16535C13.6009 9.09145 13.4887 9.02302 13.3724 8.9628C13.256 8.90122 13.137 8.84647 13.0152 8.79857C12.8934 8.75067 12.7688 8.70962 12.6416 8.67677C12.5156 8.64256 12.387 8.61655 12.257 8.59739C12.127 8.57686 11.997 8.56592 11.8656 8.56044C11.7342 8.55634 11.6028 8.55907 11.4728 8.56865C11.3414 8.5796 11.2114 8.59602 11.0828 8.62066C10.9541 8.64666 10.8268 8.67814 10.7023 8.71646C10.5764 8.75615 10.4532 8.80131 10.3341 8.85468C10.2137 8.90806 10.0974 8.96691 9.98379 9.0326C9.8702 9.09829 9.76071 9.17082 9.65533 9.24883C9.54995 9.32821 9.45005 9.41169 9.35425 9.50065C9.54174 9.44454 9.73334 9.40485 9.92768 9.38022C10.122 9.35558 10.3164 9.34737 10.5121 9.35558C10.7091 9.36379 10.9021 9.38843 11.0937 9.42812C11.2853 9.46917 11.4728 9.52528 11.6548 9.59645C11.8382 9.66898 12.012 9.7552 12.1803 9.85648C12.3487 9.95775 12.5061 10.0713 12.6552 10.2C12.8044 10.3273 12.9413 10.4655 13.0658 10.616C13.1917 10.7666 13.3039 10.9267 13.4025 11.0964L24.5495 30.3809L25.7552 32.4653L25.8004 32.546C25.8524 32.6363 25.9208 32.7144 26.0043 32.7773C26.0878 32.8416 26.1795 32.8868 26.2807 32.9142C26.382 32.9415 26.4847 32.9484 26.5887 32.9347C26.6927 32.9224 26.7898 32.8895 26.8815 32.8375C26.9719 32.7855 27.0499 32.7171 27.1128 32.6336C27.1758 32.5501 27.2223 32.4584 27.2483 32.3572C27.2757 32.2559 27.2825 32.1532 27.2688 32.0492C27.2552 31.9466 27.2223 31.848 27.1703 31.7577L27.1238 31.677Z" fill="#E2AA73"/>
<path fill-rule="evenodd" clip-rule="evenodd" d="M15.9945 37.2443C11.2305 35.9701 8.62749 41.0995 11.1142 43.307C10.6105 40.897 13.048 37.7616 16.8882 38.788L24.3058 40.7752L23.4149 39.2287L15.9945 37.2443Z" fill="#E2AA73"/>
</svg>
