<svg width="381" height="229" viewBox="0 0 381 229" fill="none" xmlns="http://www.w3.org/2000/svg">
<path d="M257.014 48.6292L177.005 14.3463C177.005 14.3463 163.676 9.01733 155.095 9.31104C146.515 9.60475 137.638 15.2801 135.79 18.4961C133.943 21.7122 132.698 28.735 132.698 28.735C132.698 28.735 130.937 50.8498 131.002 65.4423C131.067 80.035 131.695 116.503 131.695 116.503C131.695 116.503 129.536 133.85 135.093 143.303C140.649 152.756 156.856 161.553 156.856 161.553L215.051 197.596C215.051 197.596 229.74 208.203 233.092 208.603C236.444 209.002 241.731 206.995 242.439 201.949C243.148 196.903 242.244 187.828 242.244 187.828C242.244 187.828 247.292 189.053 249.103 189.669C250.915 190.284 262.901 194.412 265.083 188.627C267.265 182.841 266.061 171.314 266.061 171.314C266.061 171.314 264.263 150.379 267.811 148.083C271.359 145.787 275.783 143.931 275.388 134.116C274.993 124.301 276.938 109.426 275.413 104.603C273.888 99.7791 271.271 99.125 269.718 98.798C268.165 98.4711 268.86 88.4971 268.86 88.4971C268.86 88.4971 269.794 64.3707 268.203 59.0612C266.611 53.7516 260.496 50.1215 257.014 48.6292Z" fill="#00B66C"/>
<path d="M146.508 25.3058C146.508 25.3058 151.983 21.7603 158.927 24.2605C164.515 26.2728 222.741 52.3198 245.257 62.4107C250.625 64.8166 254.093 70.1766 254.118 76.1032L254.268 112.171" stroke="black" stroke-miterlimit="10" stroke-linecap="round" stroke-dasharray="22 22"/>
<path d="M215.216 144.782C219.561 143.281 221.254 136.77 218.997 130.239C216.741 123.708 211.389 119.63 207.044 121.132C202.7 122.633 201.007 129.144 203.263 135.675C205.52 142.206 210.872 146.284 215.216 144.782Z" fill="black"/>
<path d="M269.963 101.189C269.963 101.189 273.397 105.175 271.128 108.609C268.86 112.042 252.243 122.221 245.376 123.57C238.508 124.918 233.481 126.942 219.378 119.093C205.275 111.245 199.389 106.524 194.729 109.283C194.729 109.283 197.479 102.026 205.056 104.704C212.633 107.382 228.269 116.334 236.669 117.254C245.069 118.174 256.886 111.451 259.698 110.222C262.509 108.993 266.902 106.683 267.586 105.388C268.269 104.092 269.963 101.189 269.963 101.189Z" fill="#05F292"/>
<path d="M241.19 71.4327C240.422 68.1334 237.76 66.6534 232.286 63.7982C226.811 60.943 151.13 29.396 147.7 26.691C144.27 23.986 146.351 18.9653 153.954 19.7555C142.182 16.7442 138.012 26.3231 142.182 29.7568C146.351 33.1904 208.28 60.4146 224.222 66.7913C240.164 73.1681 242.003 82.7333 242.003 82.7333C242.003 82.7333 241.958 74.732 241.19 71.4327Z" fill="#05F292"/>
<path d="M242.003 116.503V75.7552C242.003 70.9301 239.088 66.5842 234.622 64.7557C212.971 55.8885 150.912 30.3378 147.271 27.3041C142.856 23.6251 151.134 15.3476 168.057 22.7055C181.761 28.6635 232.735 51.0257 251.633 59.3182C255.954 61.2139 258.742 65.4846 258.742 70.2024V110.64" stroke="black" stroke-width="2" stroke-miterlimit="10"/>
<path d="M241.819 163.792L242.489 200.911C242.597 206.882 236.053 210.604 230.976 207.46L145.256 154.368C137.302 149.442 132.355 140.851 132.089 131.499C131.272 102.858 129.906 41.8573 132.555 26.3844C134.171 16.941 141.178 12.5342 148.244 10.525C156.047 8.30601 164.386 8.93946 171.843 12.1345L259.58 49.7288C265.183 51.9602 268.859 57.3818 268.859 63.4124V101.117C268.859 104.215 267.025 107.019 264.186 108.26L246.141 116.148C241.05 118.373 235.252 118.322 230.201 116.008L207.027 105.39C199.958 102.151 191.9 107.278 191.839 115.053L191.655 138.429C191.622 142.572 193.98 146.363 197.71 148.167L230.692 164.113C234.081 165.751 238.065 165.588 241.309 163.679L269.84 146.888C272.775 145.161 274.606 142.037 274.68 138.633L275.385 106.202C275.445 103.473 274.064 100.915 271.752 99.4665L269.411 98.0005" stroke="black" stroke-width="2" stroke-miterlimit="10"/>
<path d="M266.06 149.113V184.901C266.06 190.068 260.983 193.705 256.09 192.043L242.244 187.338" stroke="black" stroke-width="2" stroke-miterlimit="10"/>
<path d="M242.244 183.658L251.848 186.277C255.274 187.211 258.625 184.564 258.51 181.015L257.631 154.074" stroke="black" stroke-width="2" stroke-miterlimit="10"/>
<path d="M217.591 6.92444C217.591 6.92444 212.823 2.11043 204.978 1.56954C197.134 1.02864 192.347 0.596677 189.03 4.84702C185.713 9.09736 179.082 17.6495 182.581 27.6511C186.08 37.6528 188.47 44.1861 195.293 44.8366C202.116 45.4871 209.393 48.8314 215.068 43.1874C220.743 37.5434 223.147 33.4103 223.1 26.8866C223.053 20.363 222.152 14.9553 221.123 12.784C220.094 10.6129 217.591 6.92444 217.591 6.92444Z" fill="#FFCC2E"/>
<path d="M215.068 43.1875C220.743 37.5434 223.147 33.4104 223.1 26.8867C223.053 20.363 222.152 14.9554 221.123 12.7841C220.094 10.6128 217.591 6.92452 217.591 6.92452C217.591 6.92452 212.941 2.23386 205.271 1.59484L206.679 4.67281C206.679 4.67281 213.318 11.4592 213.457 18.8178C213.596 26.1764 212.221 36.2338 208.323 39.7234C204.425 43.213 200.959 42.0366 203.043 45.9214C203.076 45.9825 203.109 46.0417 203.142 46.1018C207.407 46.7307 211.546 46.6902 215.068 43.1875Z" fill="#FF920C"/>
<path d="M197.947 45.1471C206.676 45.1471 213.752 35.2644 213.752 23.0736C213.752 10.8827 206.676 1.00003 197.947 1.00003C189.218 1.00003 182.142 10.8827 182.142 23.0736C182.142 35.2644 189.218 45.1471 197.947 45.1471Z" stroke="black" stroke-width="2" stroke-miterlimit="10"/>
<path d="M198.125 1.00003L207.444 1.77452C216.173 1.77452 223.249 11.6573 223.249 23.848C223.249 36.039 216.173 45.9216 207.444 45.9216L197.947 45.1471" stroke="black" stroke-width="2" stroke-miterlimit="10"/>
<path d="M196.642 28.1559V23.1563C195.323 21.9568 194.355 20.7295 193.74 19.4744C193.124 18.2195 192.816 16.9475 192.816 15.659C192.816 14.3544 193.164 13.4575 193.861 12.9689C194.557 12.4801 195.484 12.4991 196.642 13.0256V11.8442L198.106 12.6811V13.8625C199.176 14.6253 200.028 15.5436 200.661 16.6172C201.293 17.6908 201.697 18.8744 201.872 20.1676L199.318 19.1011C199.163 18.074 198.759 17.2068 198.106 16.4996V21.1651C199.722 22.6058 200.822 23.9048 201.408 25.0631C201.993 26.221 202.286 27.4443 202.286 28.7332C202.286 30.1731 201.918 31.1756 201.181 31.7407C200.444 32.3059 199.419 32.3247 198.106 31.7972V34.0286L196.642 33.1917V31.02C195.478 30.1875 194.532 29.1337 193.805 27.8591C193.078 26.5845 192.614 25.106 192.411 23.4232L195.047 24.5954C195.154 25.2935 195.356 25.9578 195.653 26.5883C195.949 27.2189 196.279 27.7416 196.642 28.1559ZM196.642 15.627C196.245 15.5592 195.929 15.6485 195.693 15.896C195.458 16.143 195.34 16.4975 195.34 16.9588C195.34 17.3806 195.448 17.8337 195.663 18.3186C195.878 18.8039 196.205 19.2826 196.642 19.7555V15.627ZM198.106 29.1601C198.611 29.3373 199.022 29.2952 199.338 29.0346C199.654 28.7741 199.813 28.3454 199.813 27.7489C199.813 27.216 199.68 26.6805 199.414 26.1424C199.148 25.6046 198.712 25.0593 198.106 24.5061V29.1601Z" fill="#3F0000"/>
<path d="M262.928 7.7244C262.928 7.7244 258.161 2.9104 250.316 2.3695C242.471 1.82861 237.685 1.39664 234.368 5.64698C231.051 9.89732 224.42 18.4494 227.918 28.4511C231.417 38.4528 233.808 44.9861 240.63 45.6366C247.453 46.2871 254.731 49.6315 260.406 43.9874C266.081 38.3433 268.484 34.2103 268.437 27.6868C268.39 21.1631 267.489 15.7554 266.46 13.5842C265.432 11.4127 262.928 7.7244 262.928 7.7244Z" fill="#FFCC2E"/>
<path d="M260.405 43.9871C266.08 38.3431 268.484 34.21 268.437 27.6865C268.39 21.1628 267.489 15.7552 266.46 13.5839C265.431 11.4126 262.928 7.72432 262.928 7.72432C262.928 7.72432 258.278 3.03382 250.609 2.39481L252.017 5.47277C252.017 5.47277 258.655 12.2594 258.794 19.6178C258.933 26.9764 257.558 37.0338 253.66 40.5234C249.762 44.013 246.296 42.8365 248.381 46.7214C248.413 46.7825 248.447 46.8416 248.48 46.9018C252.744 47.5305 256.884 47.4898 260.405 43.9871Z" fill="#FF920C"/>
<path d="M243.284 45.947C252.013 45.947 259.089 36.0644 259.089 23.8735C259.089 11.6826 252.013 1.79999 243.284 1.79999C234.556 1.79999 227.479 11.6826 227.479 23.8735C227.479 36.0644 234.556 45.947 243.284 45.947Z" stroke="black" stroke-width="2" stroke-miterlimit="10"/>
<path d="M243.462 1.79999L252.782 2.57447C261.511 2.57447 268.587 12.4572 268.587 24.648C268.587 36.839 261.511 46.7215 252.782 46.7215L243.284 45.947" stroke="black" stroke-width="2" stroke-miterlimit="10"/>
<path d="M241.98 28.9559V23.9565C240.661 22.7569 239.693 21.5297 239.077 20.2746C238.461 19.0196 238.153 17.7477 238.153 16.4592C238.153 15.1546 238.501 14.2577 239.198 13.7691C239.895 13.2803 240.822 13.2993 241.98 13.8258V12.6444L243.444 13.4813V14.6627C244.514 15.4255 245.365 16.3438 245.998 17.4174C246.631 18.491 247.035 19.6746 247.21 20.9678L244.655 19.9013C244.501 18.8742 244.097 18.007 243.444 17.2998V21.9652C245.059 23.4059 246.16 24.705 246.745 25.8632C247.331 27.0212 247.624 28.2445 247.624 29.5334C247.624 30.9732 247.255 31.9757 246.518 32.5409C245.781 33.106 244.756 33.1249 243.444 32.5974V34.8288L241.98 33.9919V31.8201C240.815 30.9877 239.869 29.9339 239.143 28.6593C238.416 27.3847 237.951 25.9063 237.749 24.2233L240.384 25.3956C240.492 26.0937 240.694 26.758 240.99 27.3885C241.287 28.0188 241.617 28.5415 241.98 28.9559ZM241.98 16.4269C241.583 16.3591 241.266 16.4483 241.031 16.6959C240.795 16.9429 240.677 17.2975 240.677 17.7588C240.677 18.1806 240.785 18.6337 241 19.1186C241.216 19.604 241.542 20.0826 241.98 20.5555V16.4269ZM243.444 29.9599C243.949 30.1372 244.359 30.0951 244.676 29.8344C244.992 29.574 245.15 29.1453 245.15 28.5487C245.15 28.0158 245.017 27.4804 244.751 26.9422C244.485 26.4045 244.05 25.8591 243.444 25.306V29.9599Z" fill="#3F0000"/>
<g opacity="0.12">
<path d="M34.2999 54.4963C34.2999 54.4963 34.3926 50.1423 31.1389 46.4664C27.8852 42.7904 25.9471 40.4996 22.5044 41.0626C19.0616 41.6255 12.1537 42.777 9.10055 49.0301C6.04736 55.2832 4.09999 59.4138 6.84661 62.6958C9.59323 65.9778 11.2998 70.7316 16.4388 70.5378C21.5777 70.3441 24.5585 69.4384 27.5479 66.3343C30.5375 63.2301 32.6307 60.2811 33.1732 58.8062C33.7159 57.3312 34.2999 54.4963 34.2999 54.4963Z" fill="#FFCC2E"/>
<path d="M16.4391 70.5379C21.578 70.3442 24.5587 69.4385 27.5482 66.3344C30.5378 63.2302 32.631 60.2812 33.1735 58.8063C33.7161 57.3314 34.3001 54.4964 34.3001 54.4964C34.3001 54.4964 34.3881 50.2519 31.2581 46.6062L30.4664 48.675C30.4664 48.675 30.2992 54.7773 26.9656 58.3163C23.6318 61.8553 18.3764 66.0098 15.0253 65.9599C11.6742 65.9099 10.669 63.8425 9.80724 66.5878C9.79367 66.6309 9.78122 66.6734 9.76819 66.7162C11.3826 68.8727 13.2498 70.6581 16.4391 70.5379Z" fill="#FF920C"/>
<path d="M7.88867 63.9995C11.7867 67.8051 19.5074 66.2186 25.1333 60.4561C30.7591 54.6935 32.1598 46.937 28.2617 43.1314C24.3637 39.3258 16.643 40.9122 11.0171 46.6748C5.39127 52.4374 3.99061 60.1939 7.88867 63.9995Z" stroke="black" stroke-width="2" stroke-miterlimit="10"/>
<path d="M28.3411 43.209L32.1456 47.6383C36.0437 51.4439 34.643 59.2004 29.0172 64.9629C23.3913 70.7255 15.6707 72.312 11.7726 68.5063L7.88853 63.9994" stroke="black" stroke-width="2" stroke-miterlimit="10"/>
<path d="M15.147 55.3992L17.4542 53.036C17.4186 51.8938 17.5529 50.8918 17.8571 50.0301C18.1612 49.1683 18.6105 48.4327 19.2052 47.8237C19.8072 47.207 20.3766 46.9349 20.9133 47.0077C21.45 47.0804 21.8552 47.4935 22.1293 48.2472L22.6745 47.6888L22.9421 48.7227L22.3969 49.2811C22.5228 50.1083 22.4792 50.9136 22.2664 51.697C22.0534 52.4803 21.6877 53.2158 21.169 53.9035L20.5204 52.2856C20.9253 51.7326 21.1451 51.1466 21.1799 50.5277L19.0269 52.733C19.0834 54.1183 18.9754 55.2122 18.7024 56.015C18.4295 56.8176 17.9958 57.5235 17.401 58.1328C16.7365 58.8134 16.1093 59.1266 15.5194 59.0724C14.9294 59.0182 14.4631 58.5804 14.1203 57.7587L13.0905 58.8135L12.8229 57.7795L13.8251 56.753C13.6893 55.8517 13.7532 54.9413 14.0169 54.022C14.2804 53.1025 14.7553 52.2012 15.4417 51.3176L16.0775 53.0206C15.8034 53.3975 15.5871 53.7995 15.4284 54.2268C15.2699 54.654 15.1761 55.0449 15.147 55.3992ZM20.929 49.4768C20.7829 49.2715 20.6004 49.1758 20.381 49.1901C20.1618 49.2041 19.9456 49.3205 19.7327 49.5386C19.538 49.7379 19.377 49.999 19.2494 50.3221C19.1216 50.6455 19.0465 51.014 19.0237 51.4284L20.929 49.4768ZM15.3376 56.5121C15.4812 56.816 15.6839 56.975 15.9455 56.9898C16.207 57.0046 16.4755 56.8709 16.7508 56.5889C16.9967 56.337 17.1845 56.026 17.314 55.6557C17.4434 55.2855 17.5005 54.8378 17.4853 54.3122L15.3376 56.5121Z" fill="#3F0000"/>
<path d="M346.261 143.496C346.261 143.496 346.168 139.142 349.422 135.466C352.676 131.79 354.614 129.5 358.057 130.063C361.499 130.625 368.407 131.777 371.46 138.03C374.514 144.283 376.461 148.414 373.714 151.696C370.968 154.978 369.261 159.732 364.122 159.538C358.983 159.344 356.003 158.438 353.013 155.334C350.024 152.23 347.93 149.281 347.388 147.806C346.845 146.331 346.261 143.496 346.261 143.496Z" fill="#FFCC2E"/>
<path d="M364.122 159.538C358.983 159.344 356.002 158.438 353.013 155.334C350.023 152.23 347.93 149.281 347.388 147.806C346.845 146.331 346.261 143.496 346.261 143.496C346.261 143.496 346.173 139.252 349.303 135.606L350.095 137.675C350.095 137.675 350.262 143.777 353.595 147.316C356.929 150.855 362.185 155.01 365.536 154.96C368.887 154.91 369.892 152.842 370.754 155.588C370.767 155.631 370.78 155.673 370.793 155.716C369.178 157.873 367.311 159.658 364.122 159.538Z" fill="#FF920C"/>
<path d="M372.672 152.999C368.774 156.805 361.054 155.219 355.428 149.456C349.802 143.694 348.401 135.937 352.299 132.131C356.197 128.326 363.918 129.912 369.544 135.675C375.17 141.437 376.57 149.194 372.672 152.999Z" stroke="black" stroke-width="2" stroke-miterlimit="10"/>
<path d="M352.22 132.209L348.415 136.638C344.517 140.444 345.918 148.2 351.544 153.963C357.17 159.726 364.89 161.312 368.788 157.506L372.673 152.999" stroke="black" stroke-width="2" stroke-miterlimit="10"/>
<path d="M365.414 144.399L363.107 142.036C363.142 140.894 363.008 139.892 362.704 139.03C362.4 138.168 361.95 137.433 361.356 136.824C360.754 136.207 360.184 135.935 359.648 136.008C359.111 136.08 358.706 136.494 358.432 137.247L357.887 136.689L357.619 137.723L358.164 138.281C358.038 139.108 358.082 139.914 358.295 140.697C358.508 141.48 358.873 142.216 359.392 142.903L360.041 141.286C359.636 140.733 359.416 140.147 359.381 139.528L361.534 141.733C361.478 143.118 361.586 144.212 361.859 145.015C362.132 145.818 362.565 146.524 363.16 147.133C363.825 147.813 364.452 148.127 365.042 148.072C365.632 148.018 366.098 147.58 366.441 146.759L367.471 147.813L367.738 146.78L366.736 145.753C366.872 144.852 366.808 143.941 366.544 143.022C366.281 142.103 365.806 141.201 365.119 140.318L364.484 142.021C364.758 142.397 364.974 142.8 365.133 143.227C365.291 143.654 365.385 144.045 365.414 144.399ZM359.632 138.477C359.778 138.272 359.961 138.176 360.18 138.19C360.399 138.204 360.615 138.321 360.828 138.539C361.023 138.738 361.184 138.999 361.312 139.322C361.439 139.645 361.515 140.014 361.537 140.428L359.632 138.477ZM365.223 145.512C365.08 145.816 364.877 145.975 364.616 145.99C364.354 146.005 364.086 145.871 363.81 145.589C363.564 145.337 363.377 145.026 363.247 144.656C363.118 144.285 363.061 143.838 363.076 143.312L365.223 145.512Z" fill="#3F0000"/>
<path d="M117.825 224.032C117.825 224.032 121.187 226.801 126.088 226.522C130.989 226.243 133.988 226.14 135.678 223.088C137.368 220.036 140.741 213.898 137.721 207.629C134.701 201.36 132.664 197.273 128.386 197.397C124.108 197.522 119.318 195.919 116.288 200.074C113.259 204.229 112.124 207.131 112.711 211.4C113.297 215.67 114.317 219.139 115.139 220.479C115.961 221.818 117.825 224.032 117.825 224.032Z" fill="#FFCC2E"/>
<path d="M116.288 200.074C113.258 204.229 112.124 207.131 112.71 211.4C113.297 215.67 114.316 219.139 115.139 220.479C115.961 221.818 117.825 224.032 117.825 224.032C117.825 224.032 121.104 226.729 125.905 226.529L124.77 224.626C124.77 224.626 120.082 220.716 119.367 215.907C118.653 211.098 118.644 204.399 120.759 201.799C122.873 199.198 125.119 199.689 123.496 197.312C123.471 197.275 123.445 197.239 123.42 197.202C120.727 197.135 118.169 197.495 116.288 200.074Z" fill="#FF920C"/>
<path d="M126.717 197.408C121.315 198.113 117.78 205.158 118.822 213.144C119.863 221.129 125.086 227.032 130.488 226.328C135.89 225.623 139.425 218.578 138.384 210.592C137.342 202.607 132.119 196.704 126.717 197.408Z" stroke="black" stroke-width="2" stroke-miterlimit="10"/>
<path d="M130.378 226.342L124.545 226.587C119.143 227.291 113.919 221.389 112.878 213.403C111.836 205.417 115.371 198.372 120.773 197.668L126.717 197.408" stroke="black" stroke-width="2" stroke-miterlimit="10"/>
<path d="M128.976 208.433L129.403 211.708C130.322 212.388 131.026 213.113 131.514 213.886C132.002 214.658 132.302 215.467 132.412 216.311C132.523 217.165 132.384 217.781 131.995 218.157C131.605 218.534 131.03 218.596 130.269 218.344L130.369 219.118L129.392 218.688L129.291 217.914C128.563 217.501 127.958 216.968 127.475 216.316C126.991 215.664 126.64 214.921 126.422 214.088L128.094 214.581C128.277 215.241 128.601 215.776 129.066 216.187L128.667 213.131C127.544 212.317 126.752 211.555 126.291 210.844C125.83 210.133 125.544 209.355 125.434 208.511C125.311 207.567 125.453 206.881 125.861 206.451C126.269 206.022 126.901 205.926 127.759 206.166L127.568 204.704L128.546 205.134L128.731 206.557C129.523 207.008 130.198 207.622 130.757 208.399C131.316 209.175 131.73 210.106 131.998 211.192L130.267 210.637C130.141 210.188 129.959 209.769 129.722 209.38C129.485 208.991 129.236 208.675 128.976 208.433ZM130.046 216.641C130.298 216.653 130.486 216.569 130.611 216.388C130.735 216.207 130.778 215.965 130.738 215.663C130.702 215.387 130.597 215.099 130.422 214.798C130.248 214.498 130.005 214.211 129.693 213.936L130.046 216.641ZM127.984 207.894C127.656 207.818 127.406 207.879 127.232 208.075C127.059 208.272 126.998 208.565 127.049 208.956C127.094 209.305 127.222 209.645 127.433 209.976C127.643 210.307 127.959 210.629 128.382 210.942L127.984 207.894Z" fill="#3F0000"/>
</g>
</svg>
