<svg width="20" height="20" viewBox="0 0 20 20" fill="none" xmlns="http://www.w3.org/2000/svg">
<path d="M16.0588 4.44036C14.9504 3.9237 13.7504 3.5487 12.5004 3.33203C12.4784 3.33234 12.4575 3.34133 12.4421 3.35703C12.2921 3.63203 12.1171 3.99036 12.0004 4.26536C10.6746 4.06549 9.32627 4.06549 8.00042 4.26536C7.88376 3.98203 7.70876 3.63203 7.55042 3.35703C7.54209 3.34036 7.51709 3.33203 7.49209 3.33203C6.24209 3.5487 5.05042 3.9237 3.93376 4.44036C3.92542 4.44036 3.91709 4.4487 3.90876 4.45703C1.64209 7.8487 1.01709 11.1487 1.32542 14.4154C1.32542 14.432 1.33376 14.4487 1.35042 14.457C2.85042 15.557 4.29209 16.2237 5.71709 16.6654C5.74209 16.6737 5.76709 16.6654 5.77542 16.6487C6.10876 16.1904 6.40876 15.707 6.66709 15.1987C6.68376 15.1654 6.66709 15.132 6.63376 15.1237C6.15876 14.9404 5.70876 14.7237 5.26709 14.4737C5.23376 14.457 5.23376 14.407 5.25876 14.382C5.35042 14.3154 5.44209 14.2404 5.53376 14.1737C5.55042 14.157 5.57542 14.157 5.59209 14.1654C8.45876 15.4737 11.5504 15.4737 14.3838 14.1654C14.4004 14.157 14.4254 14.157 14.4421 14.1737C14.5338 14.2487 14.6254 14.3154 14.7171 14.3904C14.7504 14.4154 14.7504 14.4654 14.7088 14.482C14.2754 14.7404 13.8171 14.9487 13.3421 15.132C13.3088 15.1404 13.3004 15.182 13.3088 15.207C13.5754 15.7154 13.8754 16.1987 14.2004 16.657C14.2254 16.6654 14.2504 16.6737 14.2754 16.6654C15.7088 16.2237 17.1504 15.557 18.6504 14.457C18.6671 14.4487 18.6754 14.432 18.6754 14.4154C19.0421 10.6404 18.0671 7.36536 16.0921 4.45703C16.0838 4.4487 16.0754 4.44036 16.0588 4.44036ZM7.10042 12.4237C6.24209 12.4237 5.52542 11.632 5.52542 10.657C5.52542 9.68203 6.22542 8.89037 7.10042 8.89037C7.98376 8.89037 8.68376 9.69037 8.67542 10.657C8.67542 11.632 7.97542 12.4237 7.10042 12.4237ZM12.9088 12.4237C12.0504 12.4237 11.3338 11.632 11.3338 10.657C11.3338 9.68203 12.0338 8.89037 12.9088 8.89037C13.7921 8.89037 14.4921 9.69037 14.4838 10.657C14.4838 11.632 13.7921 12.4237 12.9088 12.4237Z" fill="#060706"/>
</svg>
