<svg width="18" height="18" viewBox="0 0 18 18" fill="none" xmlns="http://www.w3.org/2000/svg">
<path d="M3.4 11.399H2.6C2.17565 11.399 1.76869 11.2304 1.46863 10.9304C1.16857 10.6304 1 10.2234 1 9.79914V2.59984C1 2.17554 1.16857 1.76861 1.46863 1.46858C1.76869 1.16855 2.17565 1 2.6 1H9.8C10.2243 1 10.6313 1.16855 10.9314 1.46858C11.2314 1.76861 11.4 2.17554 11.4 2.59984V3.39977" stroke="#00B66C" stroke-linecap="round" stroke-linejoin="round"/>
<path d="M15.4016 6.60254H8.20156C7.31791 6.60254 6.60156 7.31881 6.60156 8.20238V15.4017C6.60156 16.2852 7.31791 17.0015 8.20156 17.0015H15.4016C16.2852 17.0015 17.0016 16.2852 17.0016 15.4017V8.20238C17.0016 7.31881 16.2852 6.60254 15.4016 6.60254Z" stroke="#00B66C" stroke-linecap="round" stroke-linejoin="round"/>
</svg>
