<svg width="16" height="16" viewBox="0 0 16 16" fill="none" xmlns="http://www.w3.org/2000/svg">
<path d="M3 2.25H13C13.1989 2.25 13.3896 2.32907 13.5303 2.46973C13.6709 2.61038 13.75 2.80109 13.75 3V13C13.75 13.1989 13.6709 13.3896 13.5303 13.5303C13.3896 13.6709 13.1989 13.75 13 13.75H3C2.80109 13.75 2.61038 13.6709 2.46973 13.5303C2.32907 13.3896 2.25 13.1989 2.25 13V3L2.26465 2.85254C2.29352 2.70855 2.36435 2.5751 2.46973 2.46973C2.5751 2.36435 2.70855 2.29352 2.85254 2.26465L3 2.25ZM2.75 13.25H13.25V2.75H2.75V13.25Z" fill="black" stroke="#666666" stroke-width="0.5"/>
</svg>
