<svg width="16" height="16" viewBox="0 0 16 16" fill="none" xmlns="http://www.w3.org/2000/svg">
<path d="M11 5.5L6.8 10.5L5 8.5" stroke="#00B66C" stroke-linecap="round" stroke-linejoin="round"/>
<path d="M3 2.25H13C13.1492 2.25 13.2937 2.29445 13.416 2.37598L13.5303 2.46973C13.6709 2.61038 13.75 2.80109 13.75 3V13C13.75 13.1989 13.6709 13.3896 13.5303 13.5303C13.3896 13.6709 13.1989 13.75 13 13.75H3C2.85085 13.75 2.70628 13.7056 2.58398 13.624L2.46973 13.5303C2.32907 13.3896 2.25 13.1989 2.25 13V3L2.26465 2.85254C2.28388 2.75663 2.32172 2.66538 2.37598 2.58398L2.46973 2.46973C2.5751 2.36435 2.70855 2.29352 2.85254 2.26465L3 2.25ZM2.75 13.25H13.25V2.75H2.75V13.25Z" fill="black" stroke="#00B66C" stroke-width="0.5"/>
</svg>
