<svg width="20" height="20" viewBox="0 0 20 20" fill="none" xmlns="http://www.w3.org/2000/svg">
<path d="M11 3C7.1339 3 4 6.1339 4 10C4 13.8661 7.1339 17 11 17C14.8661 17 18 13.8661 18 10C18 6.1339 14.8661 3 11 3ZM11 4.4C12.4852 4.4 13.9096 4.99 14.9598 6.0402C16.01 7.09041 16.6 8.51479 16.6 10C16.6 11.4852 16.01 12.9096 14.9598 13.9598C13.9096 15.01 12.4852 15.6 11 15.6C9.51479 15.6 8.09041 15.01 7.0402 13.9598C5.99 12.9096 5.4 11.4852 5.4 10C5.4 8.51479 5.99 7.09041 7.0402 6.0402C8.09041 4.99 9.51479 4.4 11 4.4ZM11 13.5C11.1857 13.5 11.3637 13.4263 11.495 13.295C11.6262 13.1637 11.7 12.9857 11.7 12.8V9.3C11.7 9.11435 11.6262 8.9363 11.495 8.80503C11.3637 8.67375 11.1857 8.6 11 8.6C10.8143 8.6 10.6363 8.67375 10.505 8.80503C10.3737 8.9363 10.3 9.11435 10.3 9.3V12.8C10.3 12.9857 10.3737 13.1637 10.505 13.295C10.6363 13.4263 10.8143 13.5 11 13.5ZM11 6.5C10.8143 6.5 10.6363 6.57375 10.505 6.70503C10.3737 6.8363 10.3 7.01435 10.3 7.2C10.3 7.38565 10.3737 7.5637 10.505 7.69497C10.6363 7.82625 10.8143 7.9 11 7.9C11.1857 7.9 11.3637 7.82625 11.495 7.69497C11.6262 7.5637 11.7 7.38565 11.7 7.2C11.7 7.01435 11.6262 6.8363 11.495 6.70503C11.3637 6.57375 11.1857 6.5 11 6.5Z" fill="#F09A24"/>
</svg>
