<svg width="24" height="24" viewBox="0 0 24 24" fill="none" xmlns="http://www.w3.org/2000/svg">
<rect width="24" height="24" rx="12" fill="white" fill-opacity="0.11"/>
<path d="M15.9927 10.9408C15.9811 11.0624 15.9439 11.1767 15.8857 11.2697L10.9178 18.7638C10.8548 18.8757 10.7672 18.9566 10.6681 18.9948C10.6256 19.0017 10.5832 19.0017 10.5407 18.9948C10.4686 18.9943 10.3974 18.9728 10.3318 18.9318C10.2297 18.8659 10.1482 18.7516 10.1025 18.6099C10.0581 18.4838 10.0456 18.341 10.0669 18.2041L10.5051 13.4039H8.65546C8.54973 13.3948 8.44611 13.3593 8.34974 13.2989C8.25541 13.2307 8.17457 13.132 8.11421 13.0113C8.05385 12.8906 8.01577 12.7516 8.00326 12.6062C7.99256 12.4586 8.0083 12.3096 8.04911 12.1723L9.97514 5.55982C10.0261 5.39259 10.1107 5.24914 10.2197 5.14698C10.3288 5.04957 10.4564 4.99846 10.5866 5.00004H14.2756C14.3821 5.00283 14.4865 5.03852 14.5813 5.105C14.6771 5.17847 14.7591 5.28203 14.8208 5.40588C14.8779 5.53113 14.9125 5.67178 14.9227 5.81873C14.9331 5.96468 14.9156 6.11184 14.8717 6.24557L13.654 10.1431H15.5137C15.6062 10.1473 15.696 10.186 15.7736 10.2551C15.8554 10.3302 15.9197 10.4362 15.9586 10.5604C15.9974 10.6846 16.0093 10.8216 15.9927 10.9548V10.9408Z" fill="#F09A24"/>
</svg>
