<svg width="10" height="10" viewBox="0 0 10 10" fill="none" xmlns="http://www.w3.org/2000/svg">
<path d="M2.75536 8.75C2.5687 8.75 2.40981 8.68444 2.2787 8.55333C2.14759 8.42222 2.08203 8.26347 2.08203 8.07708V4.42292C2.08203 4.23681 2.14759 4.07806 2.2787 3.94667C2.40981 3.81556 2.5687 3.75 2.75536 3.75H3.33203V2.91667C3.33203 2.4525 3.49384 2.05875 3.81745 1.73542C4.14078 1.41181 4.53453 1.25 4.9987 1.25C5.46286 1.25 5.85675 1.41181 6.18037 1.73542C6.50398 2.05903 6.66564 2.45278 6.66536 2.91667V3.75H7.24245C7.42856 3.75 7.58731 3.81556 7.7187 3.94667C7.84981 4.07778 7.91536 4.23667 7.91536 4.42333V8.07708C7.91536 8.26319 7.84981 8.42194 7.7187 8.55333C7.58759 8.68444 7.42884 8.75 7.24245 8.75H2.75536ZM2.75536 8.33333H7.24245C7.31717 8.33333 7.37856 8.30931 7.42661 8.26125C7.47467 8.21319 7.4987 8.15181 7.4987 8.07708V4.42292C7.4987 4.34819 7.47467 4.28681 7.42661 4.23875C7.37856 4.19069 7.31717 4.16667 7.24245 4.16667H2.75495C2.68023 4.16667 2.61884 4.19069 2.57078 4.23875C2.52273 4.28681 2.4987 4.34833 2.4987 4.42333V8.07708C2.4987 8.15181 2.52273 8.21319 2.57078 8.26125C2.61884 8.30931 2.68036 8.33333 2.75536 8.33333ZM4.9987 6.875C5.17453 6.875 5.32259 6.81472 5.44286 6.69417C5.56342 6.57389 5.6237 6.42583 5.6237 6.25C5.6237 6.07417 5.56342 5.92611 5.44286 5.80583C5.32231 5.68556 5.17425 5.62528 4.9987 5.625C4.82314 5.62472 4.67509 5.685 4.55453 5.80583C4.43398 5.92611 4.3737 6.07417 4.3737 6.25C4.3737 6.42583 4.43398 6.57389 4.55453 6.69417C4.67481 6.81472 4.82286 6.875 4.9987 6.875ZM3.7487 3.75H6.2487V2.91667C6.2487 2.56944 6.12717 2.27431 5.88411 2.03125C5.64106 1.78819 5.34592 1.66667 4.9987 1.66667C4.65148 1.66667 4.35634 1.78819 4.11328 2.03125C3.87023 2.27431 3.7487 2.56944 3.7487 2.91667V3.75Z" fill="#F09A24"/>
</svg>
