<svg width="22" height="22" viewBox="0 0 22 22" fill="none" xmlns="http://www.w3.org/2000/svg">
<path d="M11.0007 15.582L12.4307 12.447L15.584 10.9987L12.4307 9.5687L11.0007 6.41537L9.56149 9.5687L6.41732 10.9987L9.56149 12.447L11.0007 15.582ZM7.48982 2.5287C8.60364 2.07032 9.7962 1.83367 11.0007 1.83203C12.2015 1.83203 13.3932 2.07036 14.5115 2.5287C15.6207 2.98703 16.629 3.66536 17.4815 4.51786C18.334 5.37036 19.0123 6.3787 19.4707 7.48786C19.929 8.6062 20.1673 9.79787 20.1673 10.9987C20.1673 13.4279 19.2048 15.7654 17.4815 17.4795C16.6314 18.332 15.6212 19.0081 14.509 19.4691C13.3969 19.93 12.2046 20.1666 11.0007 20.1654C9.7962 20.1637 8.60364 19.9271 7.48982 19.4687C6.37888 19.007 5.3697 18.3311 4.51982 17.4795C3.66734 16.6294 2.99122 15.6193 2.5303 14.5071C2.06938 13.3949 1.83275 12.2026 1.83399 10.9987C1.83399 8.56953 2.79649 6.23203 4.51982 4.51786C5.37232 3.66536 6.38066 2.98703 7.48982 2.5287ZM5.81232 16.187C7.18732 17.562 9.05732 18.332 11.0007 18.332C12.944 18.332 14.814 17.562 16.189 16.187C17.564 14.812 18.334 12.942 18.334 10.9987C18.334 9.05537 17.564 7.18537 16.189 5.81036C15.5074 5.12958 14.6985 4.58974 13.8082 4.2217C12.918 3.85365 11.964 3.66461 11.0007 3.66536C9.05732 3.66536 7.18732 4.43536 5.81232 5.81036C5.13154 6.49191 4.5917 7.3009 4.22366 8.19113C3.85561 9.08137 3.66657 10.0354 3.66732 10.9987C3.66732 12.942 4.43732 14.812 5.81232 16.187Z" fill="#00B66C"/>
</svg>
