<svg width="15" height="15" viewBox="0 0 15 15" fill="none" xmlns="http://www.w3.org/2000/svg">
<path d="M13.75 7.5V12.5C13.75 12.8315 13.6183 13.1495 13.3839 13.3839C13.1495 13.6183 12.8315 13.75 12.5 13.75H2.5C2.16848 13.75 1.85054 13.6183 1.61612 13.3839C1.3817 13.1495 1.25 12.8315 1.25 12.5V7.5C1.08424 7.5 0.925268 7.43415 0.808058 7.31694C0.690848 7.19973 0.625 7.04076 0.625 6.875V5C0.625 4.66848 0.756696 4.35054 0.991117 4.11612C1.22554 3.8817 1.54348 3.75 1.875 3.75H3.85625C3.78561 3.54921 3.74968 3.33785 3.75 3.125C3.75 2.62772 3.94754 2.15081 4.29917 1.79917C4.65081 1.44754 5.12772 1.25 5.625 1.25C6.25 1.25 6.8 1.5625 7.14375 2.025V2.01875L7.5 2.5L7.85625 2.01875V2.025C8.2 1.5625 8.75 1.25 9.375 1.25C9.87228 1.25 10.3492 1.44754 10.7008 1.79917C11.0525 2.15081 11.25 2.62772 11.25 3.125C11.2503 3.33785 11.2144 3.54921 11.1438 3.75H13.125C13.4565 3.75 13.7745 3.8817 14.0089 4.11612C14.2433 4.35054 14.375 4.66848 14.375 5V6.875C14.375 7.04076 14.3092 7.19973 14.1919 7.31694C14.0747 7.43415 13.9158 7.5 13.75 7.5ZM2.5 12.5H6.875V7.5H2.5V12.5ZM12.5 12.5V7.5H8.125V12.5H12.5ZM5.625 2.5C5.45924 2.5 5.30027 2.56585 5.18306 2.68306C5.06585 2.80027 5 2.95924 5 3.125C5 3.29076 5.06585 3.44973 5.18306 3.56694C5.30027 3.68415 5.45924 3.75 5.625 3.75C5.79076 3.75 5.94973 3.68415 6.06694 3.56694C6.18415 3.44973 6.25 3.29076 6.25 3.125C6.25 2.95924 6.18415 2.80027 6.06694 2.68306C5.94973 2.56585 5.79076 2.5 5.625 2.5ZM9.375 2.5C9.20924 2.5 9.05027 2.56585 8.93306 2.68306C8.81585 2.80027 8.75 2.95924 8.75 3.125C8.75 3.29076 8.81585 3.44973 8.93306 3.56694C9.05027 3.68415 9.20924 3.75 9.375 3.75C9.54076 3.75 9.69973 3.68415 9.81694 3.56694C9.93415 3.44973 10 3.29076 10 3.125C10 2.95924 9.93415 2.80027 9.81694 2.68306C9.69973 2.56585 9.54076 2.5 9.375 2.5ZM1.875 5V6.25H6.875V5H1.875ZM8.125 5V6.25H13.125V5H8.125Z" fill="#060706"/>
</svg>
