<svg width="22" height="22" viewBox="0 0 22 22" fill="none" xmlns="http://www.w3.org/2000/svg">
<rect width="22" height="22" rx="11" fill="#FFAE00"/>
<path d="M11.1667 15.75L12.5967 12.615L15.75 11.1667L12.5967 9.73667L11.1667 6.58333L9.72751 9.73667L6.58334 11.1667L9.72751 12.615L11.1667 15.75ZM7.65584 2.69667C8.76966 2.23829 9.96222 2.00164 11.1667 2C12.3675 2 13.5592 2.23833 14.6775 2.69667C15.7867 3.155 16.795 3.83333 17.6475 4.68583C18.5 5.53833 19.1783 6.54667 19.6367 7.65583C20.095 8.77417 20.3333 9.96583 20.3333 11.1667C20.3333 13.5958 19.3708 15.9333 17.6475 17.6475C16.7974 18.5 15.7872 19.1761 14.6751 19.637C13.5629 20.0979 12.3706 20.3346 11.1667 20.3333C9.96222 20.3317 8.76966 20.095 7.65584 19.6367C6.5449 19.1749 5.53571 18.499 4.68584 17.6475C3.83336 16.7974 3.15723 15.7872 2.69632 14.6751C2.2354 13.5629 1.99876 12.3706 2 11.1667C2 8.7375 2.9625 6.4 4.68584 4.68583C5.53834 3.83333 6.54667 3.155 7.65584 2.69667ZM5.97834 16.355C7.35334 17.73 9.22334 18.5 11.1667 18.5C13.11 18.5 14.98 17.73 16.355 16.355C17.73 14.98 18.5 13.11 18.5 11.1667C18.5 9.22333 17.73 7.35333 16.355 5.97833C15.6735 5.29755 14.8645 4.75771 13.9742 4.38967C13.084 4.02162 12.13 3.83258 11.1667 3.83333C9.22334 3.83333 7.35334 4.60333 5.97834 5.97833C5.29755 6.65988 4.75772 7.46887 4.38967 8.3591C4.02163 9.24933 3.83258 10.2034 3.83334 11.1667C3.83334 13.11 4.60334 14.98 5.97834 16.355Z" fill="white"/>
</svg>
