<svg width="35" height="35" viewBox="0 0 35 35" fill="none" xmlns="http://www.w3.org/2000/svg">
<rect x="0.5" y="0.5" width="34" height="34" rx="3.5" stroke="#00B66C"/>
<path d="M10.5 20.5H9.5C8.96957 20.5 8.46086 20.2893 8.08579 19.9142C7.71071 19.5391 7.5 19.0304 7.5 18.5V9.5C7.5 8.96957 7.71071 8.46086 8.08579 8.08579C8.46086 7.71071 8.96957 7.5 9.5 7.5H18.5C19.0304 7.5 19.5391 7.71071 19.9142 8.08579C20.2893 8.46086 20.5 8.96957 20.5 9.5V10.5" stroke="#00B66C" stroke-linecap="round" stroke-linejoin="round"/>
<path d="M25.5 14.5H16.5C15.3954 14.5 14.5 15.3954 14.5 16.5V25.5C14.5 26.6046 15.3954 27.5 16.5 27.5H25.5C26.6046 27.5 27.5 26.6046 27.5 25.5V16.5C27.5 15.3954 26.6046 14.5 25.5 14.5Z" stroke="#00B66C" stroke-linecap="round" stroke-linejoin="round"/>
</svg>
