<svg width="28" height="28" viewBox="0 0 28 28" fill="none" xmlns="http://www.w3.org/2000/svg">
<path fill-rule="evenodd" clip-rule="evenodd" d="M23.0744 5.16829C23.3627 5.04695 23.6783 5.0051 23.9882 5.0471C24.2982 5.08909 24.5912 5.21341 24.8369 5.40709C25.0825 5.60078 25.2717 5.85676 25.3848 6.14839C25.4979 6.44002 25.5308 6.75664 25.4801 7.06529L22.8341 23.1151C22.5774 24.6633 20.8787 25.5511 19.4589 24.78C18.2712 24.1348 16.5072 23.1408 14.9206 22.1036C14.1272 21.5845 11.6971 19.922 11.9957 18.739C12.2524 17.7275 16.3357 13.9265 18.6691 11.6666C19.5849 10.7788 19.1672 10.2666 18.0857 11.0833C15.4001 13.111 11.0881 16.1945 9.66239 17.0625C8.40472 17.8278 7.74906 17.9585 6.96506 17.8278C5.53472 17.5898 4.20822 17.2211 3.12556 16.772C1.66256 16.1653 1.73372 14.154 3.12439 13.5683L23.0744 5.16829Z" fill="#286AF6"/>
</svg>
