<svg width="68" height="68" viewBox="0 0 68 68" fill="none" xmlns="http://www.w3.org/2000/svg">
<g clip-path="url(#clip0_4068_6959)">
<path d="M37.6809 33.921C37.612 33.5702 37.6127 33.2093 37.6833 32.8588C37.7538 32.5083 37.8926 32.1752 38.0919 31.8784C38.2912 31.5815 38.5469 31.3269 38.8446 31.1289C39.1423 30.931 39.4761 30.7936 39.8268 30.7246C40.1776 30.6556 40.5385 30.6564 40.889 30.7269C41.2395 30.7975 41.5726 30.9363 41.8694 31.1356C42.1663 31.3348 42.4209 31.5906 42.6189 31.8883C42.8168 32.186 42.9542 32.5197 43.0232 32.8705M22.91 19.1936C22.8264 18.8461 22.8121 18.4854 22.8679 18.1323C22.9236 17.7792 23.0484 17.4405 23.2351 17.1356C23.4218 16.8308 23.6666 16.5656 23.9558 16.3554C24.2449 16.1452 24.5726 15.9939 24.9202 15.9103C25.2678 15.8267 25.6284 15.8124 25.9815 15.8682C26.3346 15.924 26.6733 16.0488 26.9782 16.2354C27.283 16.4221 27.5482 16.667 27.7584 16.9561C27.9687 17.2452 28.1199 17.5729 28.2035 17.9205" fill="#F09A24"/>
<path d="M48.1697 30.9818L48.0691 31.006C47.7953 30.4954 47.3653 30.0858 46.842 29.8372C46.3187 29.5885 45.7296 29.5138 45.1608 29.6239C44.5527 29.744 44.0038 30.0681 43.6049 30.5425C43.206 31.017 42.9809 31.6133 42.9669 32.233L42.8164 32.2692C42.5724 31.7281 42.1576 31.2819 41.6358 30.9989C41.1139 30.716 40.5137 30.6119 39.927 30.7027C38.5434 30.9202 37.5816 32.1467 37.6431 33.5134L37.535 33.5394C37.3364 32.9148 36.9185 32.3831 36.3584 32.0426C35.7983 31.702 35.134 31.5757 34.488 31.6868C33.8492 31.7987 33.2715 32.1357 32.8597 32.6366C32.4478 33.1376 32.2289 33.7695 32.2426 34.4179L28.1427 17.6633L22.8847 18.9279L27.2253 36.9757L26.5281 36.881L24.7167 35.5327C23.4483 34.7258 19.9297 34.6441 19.021 35.8418C17.3128 38.0925 24.3746 42.7482 23.219 41.9646L25.4089 45.2161C29.2001 57.8364 38.2786 57.5664 41.246 56.9424C48.1141 55.4978 52.3004 49.2216 50.2269 40.2673L50.3932 40.2272L48.1697 30.9818ZM32.3416 34.8229L32.3569 34.82L33.0651 37.7647L33.0611 37.7648L32.3416 34.8229Z" fill="#F09A24"/>
<path d="M29.8702 24.8783C32.7296 23.0306 34.2514 19.5128 33.4094 16.0115C32.3418 11.5726 27.884 8.83687 23.4451 9.90446C19.0061 10.972 16.2798 15.4355 17.3474 19.8745C18.1931 23.3909 21.1725 25.8342 24.5803 26.1665" stroke="black" stroke-width="0.5" stroke-linecap="round" stroke-linejoin="round"/>
<path d="M29.2989 22.5037C30.1376 21.7825 30.761 20.8438 31.1006 19.7911C31.4402 18.7384 31.4828 17.6124 31.2237 16.5371C30.4453 13.3005 27.1996 11.3132 23.9705 12.0898C20.7415 12.8664 18.7467 16.114 19.5251 19.3506C20.0744 21.6344 21.8667 23.2992 24.0109 23.7995M50.6924 41.5204C52.3454 48.3936 48.1142 55.3045 41.241 56.9575C34.3677 58.6106 27.4576 54.3792 25.8046 47.5059M50.5336 40.8602L48.3511 31.7856M43.0102 32.8349C42.871 32.1265 43.0189 31.3918 43.4215 30.7924C43.6208 30.4956 43.8766 30.241 44.1743 30.0431C44.472 29.8451 44.8058 29.7078 45.1566 29.6389C45.5074 29.57 45.8683 29.5708 46.2188 29.6414C46.5692 29.7119 46.9023 29.8508 47.1991 30.0501C47.4959 30.2494 47.7505 30.5053 47.9484 30.803C48.1464 31.1007 48.2837 31.4345 48.3526 31.7853M37.6768 33.9321C37.6078 33.5813 37.6086 33.2203 37.6791 32.8699C37.7496 32.5194 37.8885 32.1863 38.0877 31.8894C38.287 31.5926 38.5428 31.338 38.8405 31.14C39.1381 30.9421 39.4719 30.8047 39.8227 30.7357C40.1734 30.6667 40.5344 30.6675 40.8848 30.738C41.2353 30.8086 41.5685 30.9474 41.8653 31.1467C42.1621 31.3459 42.4167 31.6017 42.6147 31.8994C42.8127 32.1971 42.95 32.5308 43.019 32.8816" stroke="black" stroke-width="0.5" stroke-linecap="round" stroke-linejoin="round"/>
<path d="M37.653 33.8289C37.5976 33.4758 37.6123 33.1151 37.6963 32.7676C37.7802 32.4201 37.9318 32.0925 38.1424 31.8035C38.3529 31.5146 38.6183 31.27 38.9234 31.0836C39.2285 30.8972 39.5673 30.7728 39.9205 30.7174C40.2737 30.6619 40.6344 30.6766 40.9819 30.7606C41.3294 30.8445 41.657 30.9961 41.9459 31.2067C42.2349 31.4172 42.4795 31.6826 42.6659 31.9877C42.8522 32.2928 42.9767 32.6316 43.0321 32.9848M32.266 34.8494C32.1531 34.1428 32.323 33.4201 32.7389 32.8378C33.1548 32.2556 33.7833 31.8604 34.4883 31.738C35.1933 31.6155 35.9182 31.7756 36.5061 32.1835C37.094 32.5915 37.4976 33.2145 37.6296 33.9178M32.2585 34.8216L28.1971 17.9313C28.1135 17.5838 27.9623 17.256 27.7521 16.9669C27.5418 16.6778 27.2767 16.4329 26.9718 16.2462C26.6669 16.0596 26.3283 15.9348 25.9752 15.879C25.622 15.8232 25.2614 15.8375 24.9138 15.9211C24.5663 16.0047 24.2385 16.156 23.9494 16.3662C23.6603 16.5764 23.4154 16.8416 23.2287 17.1465C23.0421 17.4513 22.9173 17.79 22.8615 18.1431C22.8057 18.4962 22.82 18.8569 22.9036 19.2044L27.958 40.2204M24.656 36.3396L22.7727 35.0214C22.4711 34.8294 22.1346 34.6986 21.7825 34.6366C21.4303 34.5745 21.0694 34.5825 20.7203 34.66C20.3713 34.7375 20.0409 34.883 19.7481 35.0882C19.4552 35.2934 19.2057 35.5543 19.0137 35.856C18.8218 36.1576 18.6911 36.4942 18.6292 36.8463C18.5673 37.1985 18.5754 37.5594 18.653 37.9085C18.7306 38.2575 18.8763 38.5878 19.0816 38.8806C19.2869 39.1733 19.5479 39.4228 19.8496 39.6146L21.6595 41.0832M21.6078 41.0477C23.4744 42.3131 25.099 44.3414 25.8364 47.6471M50.6997 41.5066C52.3524 48.3783 48.1206 55.2901 41.2481 56.943C34.3757 58.5958 27.4638 54.3641 25.811 47.4916" stroke="black" stroke-width="0.5" stroke-linecap="round" stroke-linejoin="round"/>
</g>
<defs>
<clipPath id="clip0_4068_6959">
<rect width="56" height="56" fill="white" transform="translate(0 13.0938) rotate(-13.523)"/>
</clipPath>
</defs>
</svg>
