<svg width="24" height="24" viewBox="0 0 24 24" fill="none" xmlns="http://www.w3.org/2000/svg">
<path d="M21 9V6.4C21 5.075 20.12 4 19.036 4H2.964C1.879 4 1 5.075 1 6.4V17.6C1 18.925 1.88 20 2.964 20H19.036C20.121 20 21 18.925 21 17.6V15M20 12H20.01M16.6 9H21.4C21.8243 9 22.2313 9.16857 22.5314 9.46863C22.8314 9.76869 23 10.1757 23 10.6V13.4C23 13.8243 22.8314 14.2313 22.5314 14.5314C22.2313 14.8314 21.8243 15 21.4 15H16.6C16.1757 15 15.7687 14.8314 15.4686 14.5314C15.1686 14.2313 15 13.8243 15 13.4V10.6C15 10.1757 15.1686 9.76869 15.4686 9.46863C15.7687 9.16857 16.1757 9 16.6 9Z" stroke="#F09A24" stroke-width="1.5" stroke-linecap="round" stroke-linejoin="round"/>
</svg>
