<svg width="22" height="22" viewBox="0 0 22 22" fill="none" xmlns="http://www.w3.org/2000/svg">
<path d="M17.4173 3.66536H15.584V2.7487C15.584 2.50558 15.4874 2.27242 15.3155 2.10052C15.1436 1.92861 14.9104 1.83203 14.6673 1.83203C14.4242 1.83203 14.191 1.92861 14.0191 2.10052C13.8472 2.27242 13.7507 2.50558 13.7507 2.7487V3.66536H8.25065V2.7487C8.25065 2.50558 8.15407 2.27242 7.98217 2.10052C7.81026 1.92861 7.5771 1.83203 7.33398 1.83203C7.09087 1.83203 6.85771 1.92861 6.6858 2.10052C6.5139 2.27242 6.41732 2.50558 6.41732 2.7487V3.66536H4.58398C3.85464 3.66536 3.15517 3.9551 2.63944 4.47082C2.12372 4.98655 1.83398 5.68602 1.83398 6.41536V17.4154C1.83398 18.1447 2.12372 18.8442 2.63944 19.3599C3.15517 19.8756 3.85464 20.1654 4.58398 20.1654H17.4173C18.1467 20.1654 18.8461 19.8756 19.3619 19.3599C19.8776 18.8442 20.1673 18.1447 20.1673 17.4154V6.41536C20.1673 5.68602 19.8776 4.98655 19.3619 4.47082C18.8461 3.9551 18.1467 3.66536 17.4173 3.66536ZM18.334 17.4154C18.334 17.6585 18.2374 17.8916 18.0655 18.0635C17.8936 18.2355 17.6604 18.332 17.4173 18.332H4.58398C4.34087 18.332 4.10771 18.2355 3.9358 18.0635C3.7639 17.8916 3.66732 17.6585 3.66732 17.4154V10.9987H18.334V17.4154ZM18.334 9.16536H3.66732V6.41536C3.66732 6.17225 3.7639 5.93909 3.9358 5.76718C4.10771 5.59528 4.34087 5.4987 4.58398 5.4987H6.41732V6.41536C6.41732 6.65848 6.5139 6.89164 6.6858 7.06355C6.85771 7.23545 7.09087 7.33203 7.33398 7.33203C7.5771 7.33203 7.81026 7.23545 7.98217 7.06355C8.15407 6.89164 8.25065 6.65848 8.25065 6.41536V5.4987H13.7507V6.41536C13.7507 6.65848 13.8472 6.89164 14.0191 7.06355C14.191 7.23545 14.4242 7.33203 14.6673 7.33203C14.9104 7.33203 15.1436 7.23545 15.3155 7.06355C15.4874 6.89164 15.584 6.65848 15.584 6.41536V5.4987H17.4173C17.6604 5.4987 17.8936 5.59528 18.0655 5.76718C18.2374 5.93909 18.334 6.17225 18.334 6.41536V9.16536Z" fill="#00B66C"/>
</svg>
