<svg width="14" height="14" viewBox="0 0 14 14" fill="none" xmlns="http://www.w3.org/2000/svg">
<path d="M5.0396 10.8317L7.6646 8.20669C7.71928 8.152 7.75 8.07782 7.75 8.00048C7.75 7.92315 7.71928 7.84897 7.6646 7.79428L5.0396 5.16928C4.98459 5.11615 4.91092 5.08675 4.83445 5.08741C4.75797 5.08808 4.68482 5.11875 4.63074 5.17283C4.57666 5.22691 4.54599 5.30006 4.54532 5.37653C4.54466 5.45301 4.57406 5.52668 4.62719 5.58169L7.04627 8.00019L4.62719 10.4187C4.57251 10.4734 4.54179 10.5476 4.54179 10.6249C4.54179 10.7022 4.57251 10.7764 4.62719 10.8311C4.68188 10.8858 4.75606 10.9165 4.8334 10.9165C4.91073 10.9165 4.98491 10.8864 5.0396 10.8317Z" fill="white"/>
</svg>
