<svg width="33" height="27" viewBox="0 0 33 27" fill="none" xmlns="http://www.w3.org/2000/svg">
<path d="M16.4057 0.0113125C10.5683 -0.272778 7.48751 4.86452 6.67677 7.46868C5.28691 7.82366 1.8123 9.59948 0.422449 13.8608C-0.68943 17.2699 0.65409 21.1998 1.46483 22.7386C2.57671 25.2955 6.79259 26.6449 8.76154 27H22.66C28.2194 26.2898 29.6093 24.1591 31.694 21.6733C33.3619 19.6847 33.0839 15.6364 32.7364 13.8608L32.389 14.2159C31.3466 15.2813 28.8448 17.9091 27.177 19.8977C25.5092 21.8864 24.1657 22.3835 23.7024 22.3835C20.0888 22.3835 19.417 19.7794 19.5329 18.4773C19.1854 16.7017 22.66 12.7955 20.9227 12.7955C19.1854 12.7955 16.7532 16.7017 16.4057 18.4773C16.0582 20.2529 15.7108 20.608 14.6684 20.2529C13.8345 19.9688 14.5526 17.7671 15.0159 16.7017C15.5718 13.8608 15.0159 12.4404 14.6684 12.0853C13.2785 12.9375 11.5412 16.9385 10.8463 18.8324C10.6147 19.8977 9.80392 21.9574 8.41408 21.6733C7.02423 21.3892 7.14005 19.8977 7.37169 19.1875L9.109 14.9262C10.1514 12.7955 8.76154 9.24437 10.4988 8.88926C11.8887 8.60517 12.4678 10.1913 12.5836 11.0199C15.3633 7.04267 16.9848 9.59948 17.4481 11.375C17.9114 10.6648 19.3244 9.24437 21.2702 9.24437C23.216 9.24437 23.7024 12.322 23.7024 13.8608C23.7024 15.9915 21.9651 17.0568 22.3126 18.8324C22.5905 20.2529 23.8182 19.661 24.3973 19.1875L31.3466 11.7302C29.9567 9.45744 27.0612 7.9422 25.7872 7.46868C25.0923 5.10126 22.2431 0.295403 16.4057 0.0113125Z" fill="#00B66C"/>
</svg>
